<?xml version="1.0" encoding="UTF-8"?>
<svg version="1.1" xmlns="http://www.w3.org/2000/svg" width="512" height="512">
<path d="M0 0 C3.92373538 4.02978229 3.92373538 4.02978229 4.19213867 7.44433594 C4.794768 10.29206624 4.794768 10.29206624 7.82543945 11.83691406 C9.07837745 12.41782649 10.34202359 12.9759799 11.61328125 13.515625 C12.29069366 13.81701385 12.96810608 14.11840271 13.66604614 14.42892456 C15.87134384 15.39527967 18.08936101 16.32549446 20.3125 17.25 C21.06242218 17.56870056 21.81234436 17.88740112 22.58499146 18.21575928 C33.20992977 22.6939602 42.42094548 25.34368202 54.05859375 25.01953125 C60.63186681 24.98695804 65.35005036 27.06101246 70.5625 30.875 C72 33 72 33 71.9909668 35.84301758 C72.65823361 39.0243275 72.65823361 39.0243275 74.76431274 40.2449646 C77.33220638 41.49612972 79.9271804 42.58228652 82.58203125 43.63671875 C84.03061775 44.24589897 84.03061775 44.24589897 85.50846863 44.86738586 C88.60102973 46.16318533 91.70569434 47.42628342 94.8125 48.6875 C97.90570762 49.96550023 100.99603554 51.25008259 104.08439636 52.53974915 C106.007535 53.34039956 107.93397512 54.13317586 109.8639679 54.91716003 C110.74135117 55.27796158 111.61873444 55.63876312 112.52270508 56.01049805 C113.2924617 56.32327194 114.06221832 56.63604584 114.8553009 56.95829773 C117.29820084 58.1448392 119.03843693 59.09695958 121 61 C121.49219131 63.88354015 121.49219131 63.88354015 121.48101807 67.47294617 C121.48443577 68.13296137 121.48785347 68.79297658 121.49137473 69.47299224 C121.49797408 71.68905824 121.47594593 73.9039183 121.45410156 76.11987305 C121.45297352 77.70650199 121.4536061 79.29313302 121.45587158 80.87976074 C121.45702135 85.1916112 121.43346986 89.50301843 121.40557575 93.81476569 C121.38060566 98.31909943 121.37822357 102.82344282 121.37347412 107.32783508 C121.3610314 115.85953992 121.32819231 124.39104024 121.28807616 132.92265493 C121.24339873 142.63472366 121.22138156 152.34680205 121.20129442 162.05894792 C121.15946077 182.03941285 121.08908357 202.01969355 121 222 C119.11392211 222.95131242 117.22686816 223.90068981 115.3394165 224.84927368 C114.28867069 225.37817011 113.23792488 225.90706654 112.15533829 226.45199013 C107.50333732 228.73426314 102.75959833 230.7652116 97.984375 232.7734375 C96.95597504 233.20979019 95.92757507 233.64614288 94.86801147 234.09571838 C92.65377801 235.03477836 90.4388217 235.97213543 88.22320557 236.90792847 C82.80580669 239.19622138 77.39295363 241.49522475 71.97954178 243.7929287 C70.09038165 244.59458831 68.20101976 245.39577079 66.31161499 246.19685364 C53.23458397 251.74247376 40.1786891 257.33718275 27.125 262.9375 C24.78745017 263.93997702 22.449885 264.94241827 20.11230469 265.94482422 C15.41883585 267.95758995 10.72549302 269.97064915 6.03222656 271.98388672 C-4.47937715 276.49268957 -14.99268362 280.99751928 -25.50585938 285.50265503 C-31.31907972 287.99379582 -37.13219065 290.48519189 -42.9453125 292.9765625 C-45.27636666 293.97558717 -47.60742135 294.9746106 -49.93847656 295.97363281 C-51.09883423 296.47092896 -52.25919189 296.9682251 -53.45471191 297.48059082 C-64.22558594 302.09667969 -64.22558594 302.09667969 -67.85861206 303.65357971 C-70.27727822 304.69022492 -72.69583733 305.72711991 -75.11428833 306.76426697 C-81.03480271 309.30290729 -86.95699893 311.8374456 -92.88330078 314.36254883 C-102.77821351 318.58314948 -112.66059845 322.81939918 -122.46603394 327.24475098 C-126.35591242 328.99935744 -130.25482487 330.73334749 -134.15435791 332.46636963 C-135.9428227 333.26910244 -137.72637036 334.08289838 -139.5043335 334.90863037 C-141.92631735 336.03332079 -144.36236826 337.11956987 -146.8046875 338.19921875 C-147.83831421 338.6986071 -147.83831421 338.6986071 -148.89282227 339.20808411 C-153.96039846 341.38411693 -157.25963261 340.88023065 -162.40396118 339.04389954 C-163.26065399 338.69941269 -164.1173468 338.35492584 -165 338 C-165.84098236 337.66538254 -166.68196472 337.33076508 -167.5484314 336.98600769 C-170.27519342 335.85866152 -172.97396329 334.67906332 -175.671875 333.484375 C-176.68782745 333.04040878 -177.70377991 332.59644257 -178.7505188 332.13902283 C-180.94196815 331.18088554 -183.13233599 330.2202715 -185.32171631 329.25741577 C-191.2273712 326.66070029 -197.14135074 324.08306886 -203.0546875 321.50390625 C-203.66520588 321.23737055 -204.27572426 320.97083485 -204.90474319 320.69622231 C-221.04406281 313.65088869 -237.25293217 306.77034984 -253.46386719 299.89160156 C-259.64551274 297.26792629 -265.82386563 294.63662042 -272 292 C-273.08510864 291.53756897 -274.17021729 291.07513794 -275.28820801 290.59869385 C-278.50956666 289.22348668 -281.72784661 287.8413177 -284.9453125 286.45703125 C-286.42062943 285.82845467 -286.42062943 285.82845467 -287.92575073 285.18717957 C-288.82697662 284.79774673 -289.72820251 284.4083139 -290.65673828 284.00708008 C-291.44992462 283.66663162 -292.24311096 283.32618317 -293.06033325 282.97541809 C-295 282 -295 282 -297 280 C-297.18795611 277.34955896 -297.25183861 274.80449186 -297.22705078 272.15380859 C-297.22734283 271.34397018 -297.22763489 270.53413177 -297.22793579 269.69975281 C-297.2265395 267.01587304 -297.21096435 264.33226893 -297.1953125 261.6484375 C-297.19158343 259.79041699 -297.18873596 257.93239452 -297.18673706 256.07437134 C-297.17909224 251.17853386 -297.15943649 246.28281461 -297.1373291 241.38702393 C-297.11688893 236.39344889 -297.10773926 231.39985479 -297.09765625 226.40625 C-297.07619138 216.60411466 -297.04204522 206.80206715 -297 197 C-282.08262653 189.44418937 -282.08262653 189.44418937 -274.484375 186.25390625 C-273.42249969 185.80264626 -273.42249969 185.80264626 -272.33917236 185.3422699 C-270.8785685 184.72282369 -269.41704747 184.10553538 -267.95458984 183.49047852 C-265.70792816 182.54479069 -263.46518612 181.59020457 -261.22265625 180.63476562 C-259.78928204 180.02812685 -258.35569648 179.42198714 -256.921875 178.81640625 C-256.25428162 178.53213272 -255.58668823 178.24785919 -254.89886475 177.95497131 C-250.23064827 176 -250.23064827 176 -248 176 C-248.1546875 174.6696875 -248.1546875 174.6696875 -248.3125 173.3125 C-248 170 -248 170 -245.9375 167.3125 C-238.87257071 161.75074715 -231.91734278 160.81665441 -223.20703125 161.375 C-213.64938189 161.44050341 -206.22750249 157.96890836 -197.6875 154 C-195.45750931 152.99562548 -193.22420169 151.9989922 -190.98994446 151.00415039 C-189.61438732 150.38828976 -188.2419719 149.76535074 -186.87321472 149.13452148 C-182.21169497 147 -182.21169497 147 -180 147 C-180.103125 146.113125 -180.20625 145.22625 -180.3125 144.3125 C-180 141 -180 141 -177.9375 138.3125 C-172.6088338 134.11759257 -167.62104685 132.85330914 -161 132 C-161.00888245 131.13191711 -161.01776489 130.26383423 -161.0269165 129.3694458 C-161.10706476 121.18857027 -161.16796554 113.0078266 -161.20724869 104.82664871 C-161.22812361 100.62059023 -161.256439 96.41485615 -161.30175781 92.20898438 C-161.34521976 88.1500403 -161.36913782 84.09140826 -161.37950897 80.03224945 C-161.3868998 78.48366127 -161.40133252 76.93509017 -161.42292023 75.38663483 C-161.45196048 73.21734216 -161.45595599 71.04933859 -161.45410156 68.87988281 C-161.46298401 67.64522278 -161.47186646 66.41056274 -161.48101807 65.13848877 C-160.90143927 61.35692281 -160.0087361 60.28769713 -157 58 C-154.94468689 56.83563232 -154.94468689 56.83563232 -152.73803711 55.89355469 C-151.90715073 55.53348328 -151.07626434 55.17341187 -150.22019958 54.8024292 C-149.33155716 54.42934631 -148.44291473 54.05626343 -147.52734375 53.671875 C-146.60788467 53.27800598 -145.6884256 52.88413696 -144.74110413 52.47833252 C-142.80226351 51.65022096 -140.86140875 50.82681127 -138.91870117 50.0078125 C-135.94010472 48.75109897 -132.9687556 47.47835606 -129.99804688 46.203125 C-128.11238535 45.40008722 -126.22633067 44.59797186 -124.33984375 43.796875 C-123.00384377 43.22510529 -123.00384377 43.22510529 -121.64085388 42.64178467 C-120.81311966 42.2943219 -119.98538544 41.94685913 -119.13256836 41.58886719 C-118.40516953 41.28116394 -117.67777069 40.97346069 -116.92832947 40.65643311 C-115 40 -115 40 -112 40 C-111.938125 38.948125 -111.87625 37.89625 -111.8125 36.8125 C-110.82306238 32.16975426 -109.77629366 30.83222025 -106 28 C-100.84373665 25.67900734 -96.32936207 24.79828931 -90.72070312 25.09375 C-79.47906169 25.55534007 -70.13538022 21.8505541 -60 17.5 C-58.92949905 17.0576149 -58.92949905 17.0576149 -57.83737183 16.60629272 C-48.32056693 12.91068721 -48.32056693 12.91068721 -42.24609375 5.18359375 C-41.94336548 4.07455688 -41.94336548 4.07455688 -41.63452148 2.94311523 C-41 1 -41 1 -38.0625 -1.4375 C-26.5039783 -6.76276371 -10.98344816 -6.364686 0 0 Z " fill="#355E5F" transform="translate(344,88)"/>
<path d="M0 0 C0 23.1 0 46.2 0 70 C-22.37208378 79.68234445 -44.75073613 89.34373676 -67.1875 98.875 C-83.11498334 105.64159302 -99.03306292 112.42939838 -114.9375 119.25 C-115.94226379 119.68087921 -116.94702759 120.11175842 -117.98223877 120.55569458 C-122.11351038 122.32745668 -126.24469693 124.09941689 -130.37576294 125.87165833 C-138.10658162 129.18820346 -145.83821956 132.50283303 -153.5703125 135.81640625 C-154.71665161 136.30768509 -155.86299072 136.79896393 -157.04406738 137.30513 C-162.87848868 139.80546888 -168.71306784 142.30543865 -174.54785156 144.80493164 C-185.57903767 149.53090493 -196.60884385 154.26000772 -207.63374329 159.00062561 C-212.12735186 160.9328144 -216.62164707 162.86340374 -221.11609173 164.79364681 C-224.17491094 166.1074748 -227.23320538 167.42249352 -230.290802 168.73916626 C-233.67598498 170.19683578 -237.06246693 171.65144876 -240.44921875 173.10546875 C-241.42915802 173.52839203 -242.40909729 173.95131531 -243.41873169 174.38705444 C-250.55862096 177.44733424 -257.73497466 180.20575949 -265 183 C-265 160.23 -265 137.46 -265 114 C-257.35572671 110.17786336 -249.83684551 106.52893506 -241.984375 103.2265625 C-240.9558844 102.79016449 -239.9273938 102.35376648 -238.86773682 101.90414429 C-236.65341325 100.96503514 -234.43836537 100.0276323 -232.22265625 99.09179688 C-226.80785692 96.80466847 -221.39750127 94.50706938 -215.98664856 92.21062469 C-214.09813917 91.40929493 -212.20942733 90.60844392 -210.32067871 89.80767822 C-198.3586042 84.73492246 -186.41592843 79.61723388 -174.47619629 74.49212646 C-154.99707133 66.13088462 -135.50545553 57.79962271 -116 49.5 C-97.19983859 41.49898986 -78.40666195 33.48183496 -59.625 25.4375 C-57.85659256 24.6801355 -57.85659256 24.6801355 -56.05245972 23.9074707 C-40.5413722 17.26180344 -25.04833113 10.57739541 -9.61376953 3.75561523 C-8.46376465 3.24844971 -7.31375977 2.74128418 -6.12890625 2.21875 C-5.14994385 1.78498047 -4.17098145 1.35121094 -3.16235352 0.90429688 C-1 0 -1 0 0 0 Z " fill="#F9DE7D" transform="translate(457,235)"/>
<path d="M0 0 C0.02578125 1.03640625 0.0515625 2.0728125 0.078125 3.140625 C0.13441951 4.51045801 0.19176655 5.88024805 0.25 7.25 C0.26417969 7.93191406 0.27835937 8.61382812 0.29296875 9.31640625 C0.45693629 12.69413753 0.74658392 14.67093733 2.83203125 17.37890625 C10.61418022 23.19799061 19.66113051 23.63699962 29 23 C35.14328302 21.93023497 40.54123988 20.60738546 45 16 C46.4807848 13.0384304 46.35314037 10.16493705 46.5625 6.875 C46.64628906 5.59367187 46.73007812 4.31234375 46.81640625 2.9921875 C46.87699219 2.00476563 46.93757812 1.01734375 47 0 C55.33333333 3.33333333 63.66666667 6.66666667 72 10 C71 12 70 14 69 16 C68.9026021 18.06979722 68.86923141 20.14275719 68.8671875 22.21484375 C68.86525391 24.07979492 68.86525391 24.07979492 68.86328125 25.98242188 C68.86714844 27.28759766 68.87101563 28.59277344 68.875 29.9375 C68.87113281 31.23880859 68.86726562 32.54011719 68.86328125 33.88085938 C68.86457031 35.12544922 68.86585938 36.37003906 68.8671875 37.65234375 C68.86887939 39.36925415 68.86887939 39.36925415 68.87060547 41.12084961 C68.87176487 44.07082167 68.87176487 44.07082167 70 47 C72.16621868 48.1025173 72.16621868 48.1025173 75 49 C76.0725 49.53625 77.145 50.0725 78.25 50.625 C86.75278731 53.79937393 98.63399493 53.14997286 107.140625 50.14453125 C109.99602957 48.38689777 111.88738993 46.62205904 114 44 C114.52437831 41.2042814 114.78848909 38.97543325 114.8125 36.1875 C114.83763672 35.49462891 114.86277344 34.80175781 114.88867188 34.08789062 C114.94713263 32.39252878 114.97653047 30.69620713 115 29 C115.67466309 29.28198242 116.34932617 29.56396484 117.04443359 29.85449219 C120.15429838 31.15377188 123.26464592 32.45189209 126.375 33.75 C127.43589844 34.1934375 128.49679687 34.636875 129.58984375 35.09375 C136.03865327 37.78405091 142.50326774 40.42750506 149 43 C149 43.66 149 44.32 149 45 C148.44783813 45.23485107 147.89567627 45.46970215 147.32678223 45.71166992 C116.20156312 58.95111127 85.09096333 72.2238218 54.00817871 85.56259155 C51.85347995 86.48623664 49.69799018 87.40803912 47.54162598 88.32778931 C43.17964991 90.19038525 38.82770812 92.06209143 34.51953125 94.04638672 C33.87278442 94.33968369 33.2260376 94.63298065 32.55969238 94.93516541 C30.95174827 95.66835051 29.35136123 96.41805389 27.75195312 97.16967773 C20.95599284 99.2201622 14.49098333 95.28318388 8.32421875 92.609375 C7.26651276 92.15701981 6.20880676 91.70466461 5.11904907 91.23860168 C1.63917622 89.74858814 -1.83662616 88.24931576 -5.3125 86.75 C-7.73321647 85.7115441 -10.15419965 84.67370973 -12.57543945 83.63647461 C-17.57185984 81.49517595 -22.5664233 79.34960364 -27.55957031 77.20068359 C-35.74337219 73.67871137 -43.932472 70.16914078 -52.12217712 66.66091919 C-57.29688393 64.44417401 -62.47119227 62.22652504 -67.64379883 60.00488281 C-79.40854664 54.95352971 -91.19260963 49.95087956 -103 45 C-100.19214501 42.00335685 -97.48182544 40.70552341 -93.6875 39.08203125 C-93.07737061 38.81992355 -92.46724121 38.55781586 -91.83862305 38.2877655 C-90.55243685 37.73725223 -89.26471742 37.19030907 -87.97558594 36.64672852 C-86.00293945 35.81374124 -84.03645342 34.96735209 -82.0703125 34.11914062 C-80.81805226 33.58513027 -79.56545892 33.05190022 -78.3125 32.51953125 C-77.17425781 32.03589111 -76.03601563 31.55225098 -74.86328125 31.05395508 C-72 30 -72 30 -69 30 C-68.94392578 31.21236328 -68.94392578 31.21236328 -68.88671875 32.44921875 C-68.82097656 33.51785156 -68.75523437 34.58648437 -68.6875 35.6875 C-68.62949219 36.74324219 -68.57148438 37.79898438 -68.51171875 38.88671875 C-67.94839615 42.31395626 -67.09110418 44.24223646 -65 47 C-63.1445652 48.38173419 -63.1445652 48.38173419 -61.0625 49.25 C-60.05896484 49.72179687 -60.05896484 49.72179687 -59.03515625 50.203125 C-49.3711384 53.98711663 -37.5961762 52.9488545 -28.13671875 49.16796875 C-24.64513905 47.25940873 -23.2653818 45.79614539 -22 42 C-21.74024233 37.87929884 -21.76859465 33.75301187 -21.75 29.625 C-21.729375 28.48804688 -21.70875 27.35109375 -21.6875 26.1796875 C-21.68234375 25.08140625 -21.6771875 23.983125 -21.671875 22.8515625 C-21.6625293 21.84947754 -21.65318359 20.84739258 -21.64355469 19.81494141 C-22.05569122 16.56019197 -23.22033767 14.71765597 -25 12 C-25 11.34 -25 10.68 -25 10 C-21.21091124 8.32742736 -17.41832115 6.66294885 -13.625 5 C-12.54476562 4.52304688 -11.46453125 4.04609375 -10.3515625 3.5546875 C-9.3203125 3.10351562 -8.2890625 2.65234375 -7.2265625 2.1875 C-6.27346191 1.76855469 -5.32036133 1.34960938 -4.33837891 0.91796875 C-2 0 -2 0 0 0 Z " fill="#74C4A3" transform="translate(301,107)"/>
<path d="M0 0 C0.04898438 0.89203125 0.09796875 1.7840625 0.1484375 2.703125 C0.26058594 4.45882812 0.26058594 4.45882812 0.375 6.25 C0.47941406 7.99023438 0.47941406 7.99023438 0.5859375 9.765625 C0.97072442 12.77131906 1.27261592 14.54588475 3 17 C4.82365026 18.29097474 4.82365026 18.29097474 6.9375 19.1875 C7.97197266 19.67283203 7.97197266 19.67283203 9.02734375 20.16796875 C17.60523621 23.78597092 30.3427511 23.53023547 39 20.25 C42.31939256 18.75627335 44.21205676 17.1977716 46 14 C46.57767496 10.50141132 46.57767496 10.50141132 46.6875 6.75 C46.78611328 4.85507813 46.78611328 4.85507813 46.88671875 2.921875 C46.92410156 1.95765625 46.96148437 0.9934375 47 0 C55.64411081 2.62410507 63.76925385 6.31383762 72 10 C71.690625 10.598125 71.38125 11.19625 71.0625 11.8125 C68.27897073 17.54329555 68.81600315 23.19138237 68.8125 29.4375 C68.80025391 30.58283203 68.78800781 31.72816406 68.77539062 32.90820312 C68.77345703 34.00970703 68.77152344 35.11121094 68.76953125 36.24609375 C68.76542236 37.25341553 68.76131348 38.2607373 68.75708008 39.29858398 C69.00655767 42.07292521 69.49465199 43.67626444 71 46 C75.81357454 49.21193553 81.1938847 51.63711779 87 52 C87.72574219 52.05027344 88.45148438 52.10054688 89.19921875 52.15234375 C97.22611478 52.46737107 106.5657137 51.18894056 113 46 C115.23252098 42.54241335 115.38183425 39.30276256 115.625 35.25 C115.69976562 34.07953125 115.77453125 32.9090625 115.8515625 31.703125 C115.92503906 30.36507813 115.92503906 30.36507813 116 29 C127.51148229 33.25006489 138.74605769 38.11759899 150 43 C147.27296064 45.17636388 144.68881209 46.71694475 141.47753906 48.07104492 C140.12436333 48.64653831 140.12436333 48.64653831 138.74385071 49.23365784 C137.26962898 49.85082924 137.26962898 49.85082924 135.765625 50.48046875 C134.72395676 50.92192734 133.68228851 51.36338593 132.60905457 51.81822205 C129.15811616 53.27962011 125.70405814 54.73349276 122.25 56.1875 C117.98049417 57.99279879 113.71208726 59.80068902 109.44370842 61.60865021 C107.5336224 62.41742168 105.62322792 63.22546101 103.71278381 64.03338623 C94.60202153 67.88788411 85.50614263 71.77616047 76.41796875 75.68359375 C75.14338434 76.23136487 73.86879736 76.77913 72.59420776 77.32688904 C67.6739569 79.4417987 62.75410601 81.55762782 57.83581543 83.67709351 C56.09515808 84.42704086 56.09515808 84.42704086 54.31933594 85.19213867 C53.19657761 85.67671539 52.07381927 86.16129211 50.91703796 86.66055298 C48.7509957 87.58702458 46.57986157 88.5016974 44.40339661 89.40341187 C38.24430406 91.93515118 38.24430406 91.93515118 32.42553711 95.14233398 C28.25193671 97.52422145 25.29723143 98.54190091 20.5062561 97.41174316 C12.61698589 94.88669982 5.18075074 91.30938004 -2.3125 87.8125 C-4.76943039 86.69921411 -7.23267045 85.60028489 -9.6965332 84.50244141 C-13.5368784 82.78760928 -17.37480727 81.06805763 -21.20310974 79.32647705 C-30.31248874 75.18279298 -39.47136385 71.17259907 -48.6796875 67.25390625 C-49.3149127 66.98343035 -49.9501379 66.71295444 -50.60461235 66.4342823 C-53.7451577 65.097584 -56.88652781 63.76283909 -60.02841187 62.42929077 C-90.28776955 49.5758588 -90.28776955 49.5758588 -102 44 C-98.75188211 41.32037722 -95.41802969 39.73341744 -91.5546875 38.08203125 C-90.94360138 37.81992355 -90.33251526 37.55781586 -89.70291138 37.2877655 C-88.41812646 36.73814197 -87.13220269 36.19117374 -85.84521484 35.64672852 C-83.8716593 34.81108548 -81.9024552 33.96577557 -79.93359375 33.11914062 C-70.27925898 29 -70.27925898 29 -68 29 C-67.97421875 29.95261719 -67.9484375 30.90523438 -67.921875 31.88671875 C-67.86515625 33.14097656 -67.8084375 34.39523437 -67.75 35.6875 C-67.70359375 36.92886719 -67.6571875 38.17023438 -67.609375 39.44921875 C-66.90616924 43.54674465 -66.01585153 45.17106054 -63 48 C-51.42466647 53.54155199 -40.81170706 52.89580172 -28.84765625 49.36328125 C-25.3969979 47.71131998 -24.0969223 46.1879297 -22 43 C-21.40627553 39.90225861 -21.40627553 39.90225861 -21.50390625 36.5625 C-21.50293945 34.72558594 -21.50293945 34.72558594 -21.50195312 32.8515625 C-21.52193359 31.58054687 -21.54191406 30.30953125 -21.5625 29 C-21.55541016 27.72898437 -21.54832031 26.45796875 -21.54101562 25.1484375 C-21.5140307 17.09124258 -21.5140307 17.09124258 -25 10 C-21.21091124 8.32742736 -17.41832115 6.66294885 -13.625 5 C-12.54476562 4.52304688 -11.46453125 4.04609375 -10.3515625 3.5546875 C-9.3203125 3.10351562 -8.2890625 2.65234375 -7.2265625 2.1875 C-6.27346191 1.76855469 -5.32036133 1.34960938 -4.33837891 0.91796875 C-2 0 -2 0 0 0 Z " fill="#F8DD7D" transform="translate(164,244)"/>
<path d="M0 0 C10.12513845 3.37504615 10.12513845 3.37504615 14.09008789 5.07104492 C14.99181229 5.45470718 15.89353668 5.83836945 16.82258606 6.23365784 C18.2581208 6.85082924 18.2581208 6.85082924 19.72265625 7.48046875 C20.75738571 7.92192734 21.79211517 8.36338593 22.85820007 8.81822205 C26.26114703 10.27113506 29.66186734 11.72917937 33.0625 13.1875 C35.44487779 14.20647277 37.82736666 15.22518588 40.20996094 16.24365234 C44.57889582 18.11183578 48.94725587 19.98134471 53.31481361 21.85274506 C60.46466968 24.91625854 67.61793268 27.97169545 74.7731781 31.02259827 C79.24872395 32.93096388 83.7232284 34.8417647 88.19739246 36.75336742 C91.26168014 38.06255121 94.32641554 39.37065657 97.39187622 40.67709351 C100.81981915 42.13853284 104.24604158 43.60393624 107.671875 45.0703125 C109.17484383 45.70959938 109.17484383 45.70959938 110.70817566 46.36180115 C111.65622574 46.7685054 112.60427582 47.17520966 113.58105469 47.59423828 C114.3908075 47.94011993 115.2005603 48.28600159 116.03485107 48.6423645 C120.4112711 50.64617049 124.6948133 52.84740665 129 55 C129 77.77 129 100.54 129 124 C118.87486155 120.62495385 118.87486155 120.62495385 114.90991211 118.92895508 C114.00818771 118.54529282 113.10646332 118.16163055 112.17741394 117.76634216 C110.7418792 117.14917076 110.7418792 117.14917076 109.27734375 116.51953125 C108.24261429 116.07807266 107.20788483 115.63661407 106.14179993 115.18177795 C102.73885297 113.72886494 99.33813266 112.27082063 95.9375 110.8125 C93.55512221 109.79352723 91.17263334 108.77481412 88.79003906 107.75634766 C84.42110418 105.88816422 80.05274413 104.01865529 75.68518639 102.14725494 C68.53533032 99.08374146 61.38206732 96.02830455 54.2268219 92.97740173 C49.75127605 91.06903612 45.2767716 89.1582353 40.80260754 87.24663258 C37.73831986 85.93744879 34.67358446 84.62934343 31.60812378 83.32290649 C28.18018085 81.86146716 24.75395842 80.39606376 21.328125 78.9296875 C19.82515617 78.29040062 19.82515617 78.29040062 18.29182434 77.63819885 C17.34377426 77.2314946 16.39572418 76.82479034 15.41894531 76.40576172 C14.6091925 76.05988007 13.7994397 75.71399841 12.96514893 75.3576355 C8.5887289 73.35382951 4.3051867 71.15259335 0 69 C0 46.23 0 23.46 0 0 Z " fill="#F8DE7D" transform="translate(55,294)"/>
<path d="M0 0 C0 23.1 0 46.2 0 70 C-11.6325 74.95 -11.6325 74.95 -23.5 80 C-42.58914926 88.12796316 -61.67125405 96.27217698 -80.74194336 104.44335938 C-83.14013303 105.4709017 -85.53840607 106.49824944 -87.93676758 107.52539062 C-91.32012743 108.97455409 -94.703083 110.42465733 -98.0859375 111.875 C-99.13340149 112.32351318 -100.18086548 112.77202637 -101.2600708 113.23413086 C-105.86535624 115.20944321 -110.46358025 117.19696659 -115.04003906 119.23828125 C-115.78951813 119.57166504 -116.53899719 119.90504883 -117.31118774 120.24853516 C-118.66093415 120.851217 -120.00861142 121.45856679 -121.35360718 122.07177734 C-124.11228697 123.30414922 -125.93488934 124 -129 124 C-129 101.23 -129 78.46 -129 55 C-120.915 51.535 -112.83 48.07 -104.5 44.5 C-101.79039062 43.33863525 -99.08078125 42.17727051 -96.2890625 40.98071289 C-83.95784323 35.69543322 -71.62618844 30.41117621 -59.29319763 25.13003159 C-55.51560282 23.51233628 -51.73814926 21.89431118 -47.96070099 20.27627373 C-44.9569356 18.989674 -41.95304228 17.70337427 -38.94897461 16.41748047 C-35.58032344 14.97550133 -32.21193999 13.53289978 -28.84375 12.08984375 C-27.80400024 11.64446259 -26.76425049 11.19908142 -25.69299316 10.74020386 C-18.93733554 7.84230635 -12.19466029 4.91626777 -5.47692871 1.93138123 C-1.105997 0 -1.105997 0 0 0 Z " fill="#74C5A3" transform="translate(457,157)"/>
<path d="M0 0 C3.75916409 0.75183282 6.39993453 1.45957784 9.81958008 2.93579102 C10.76164307 3.33962006 11.70370605 3.7434491 12.67431641 4.15951538 C13.6957373 4.60316437 14.7171582 5.04681335 15.76953125 5.50390625 C17.39677124 6.20370102 17.39677124 6.20370102 19.05688477 6.91763306 C22.02513172 8.19508951 24.99151735 9.47675583 27.95715714 10.76025009 C31.07043971 12.1064329 34.1860376 13.44723339 37.30151367 14.78833008 C41.19739295 16.46570798 45.09306354 18.14356274 48.98774719 19.82371521 C58.24564189 23.81725144 67.51100662 27.79303214 76.78125 31.7578125 C78.06329372 32.30627716 79.34533213 32.85475424 80.62736511 33.40324402 C85.56120281 35.51394677 90.49515376 37.6243838 95.42959595 39.7336731 C98.83507763 41.18976561 102.23987588 42.64744541 105.64453125 44.10546875 C106.63501465 44.52849274 107.62549805 44.95151672 108.64599609 45.38735962 C115.14262612 48.17144103 121.56202015 51.07364552 128 54 C128 76.77 128 99.54 128 123 C120.88546454 121.57709291 114.44516213 118.69368073 107.77905273 115.90039062 C106.13387509 115.21646049 104.48405633 114.54358994 102.82983398 113.88183594 C100.43394919 112.92281537 98.05447734 111.9304613 95.67578125 110.9296875 C94.93620682 110.64084686 94.19663239 110.35200623 93.43464661 110.05441284 C91.3605957 109.15576172 91.3605957 109.15576172 88 107 C86.68823242 103.43017578 86.68823242 103.43017578 86 100 C81.7442796 95.54633911 77.28396544 93.12254929 71.01147461 92.94311523 C69.57224934 92.98775935 68.13304125 93.03295958 66.69384766 93.07861328 C51.44646325 93.37561995 38.4139344 86.52056954 25 80 C23.90800293 79.51644043 22.81600586 79.03288086 21.69091797 78.53466797 C19 77 19 77 17.9375 73.5625 C17.628125 72.386875 17.31875 71.21125 17 70 C12.41730452 64.50076542 7.51652673 64.87913168 0 63 C0 42.21 0 21.42 0 0 Z " fill="#74C5A3" transform="translate(192,158)"/>
<path d="M0 0 C2.83258653 1.85821936 4.87441354 3.77651931 7.078125 6.36328125 C7.72509766 9.51367188 7.72509766 9.51367188 7.7421875 13.01953125 C7.75185547 14.92412109 7.75185547 14.92412109 7.76171875 16.8671875 C7.74238281 18.18589844 7.72304687 19.50460937 7.703125 20.86328125 C7.72246094 22.18199219 7.74179688 23.50070312 7.76171875 24.859375 C7.75527344 26.12910156 7.74882812 27.39882813 7.7421875 28.70703125 C7.73372803 30.44243164 7.73372803 30.44243164 7.72509766 32.21289062 C6.89084939 36.27520748 5.22230695 37.74876963 2.078125 40.36328125 C-7.18580918 45.62037561 -18.28494155 45.82815181 -28.421875 43.17578125 C-33.21088092 41.51895877 -37.5765368 39.05395766 -39.921875 34.36328125 C-40.24773219 29.95307231 -40.24648307 25.53402791 -40.296875 21.11328125 C-40.33425781 19.88480469 -40.37164062 18.65632813 -40.41015625 17.390625 C-40.50916029 7.2372108 -40.50916029 7.2372108 -37.6640625 3.65234375 C-27.51717539 -4.81784976 -11.88699982 -5.19521755 0 0 Z " fill="#395F5F" transform="translate(203.921875,281.63671875)"/>
<path d="M0 0 C0.87519287 0.00427002 1.75038574 0.00854004 2.65209961 0.01293945 C9.16633078 0.18463801 15.01966564 1.01132327 20.0625 5.5 C24.10633419 11.20449376 23.6137763 16.60336756 23.625 23.375 C23.66173828 24.53386719 23.69847656 25.69273437 23.73632812 26.88671875 C23.78539779 36.42804242 23.78539779 36.42804242 20.26171875 40.69921875 C14.3771462 46.58938766 7.02856585 46.81286871 -0.875 46.9375 C-7.6523341 46.90002549 -14.20575468 46.51682553 -19.9375 42.5 C-25.42714083 36.7501714 -24.56548809 31.13215286 -24.5 23.5625 C-24.52384766 22.29986328 -24.54769531 21.03722656 -24.57226562 19.73632812 C-24.55592607 9.41517546 -24.55592607 9.41517546 -21.96484375 5.80859375 C-15.30966624 0.73348419 -8.18340585 -0.06054792 0 0 Z " fill="#345E60" transform="translate(324.9375,142.5)"/>
<path d="M0 0 C0 23.1 0 46.2 0 70 C-4.95 71.98 -9.9 73.96 -15 76 C-15 52.9 -15 29.8 -15 6 C-1 0 -1 0 0 0 Z " fill="#64AC8F" transform="translate(457,157)"/>
<path d="M0 0 C0 23.1 0 46.2 0 70 C-14 76 -14 76 -15 76 C-15 52.9 -15 29.8 -15 6 C-1 0 -1 0 0 0 Z " fill="#D7C16E" transform="translate(457,235)"/>
<path d="M0 0 C0.94746094 0.24363281 0.94746094 0.24363281 1.9140625 0.4921875 C6.08374385 1.1783376 10.15692447 1.14458859 14.375 1.125 C15.2 1.12886719 16.025 1.13273437 16.875 1.13671875 C21.68897457 1.12907752 26.25332792 0.80603865 31 0 C31 4.29 31 8.58 31 13 C23.3880891 17.07148722 15.05359718 18.56873822 6.54296875 16.36328125 C1.50089286 14.50089286 1.50089286 14.50089286 0 13 C-0.07258946 10.81360547 -0.08373783 8.62499611 -0.0625 6.4375 C-0.05347656 5.23996094 -0.04445313 4.04242188 -0.03515625 2.80859375 C-0.02355469 1.88175781 -0.01195312 0.95492187 0 0 Z " fill="#73C2A2" transform="translate(309,106)"/>
<path d="M0 0 C0.62003906 0.16242188 1.24007812 0.32484375 1.87890625 0.4921875 C6.24094077 1.20190526 10.52586104 1.14427883 14.9375 1.125 C15.81857422 1.12886719 16.69964844 1.13273437 17.60742188 1.13671875 C22.18542071 1.12986032 26.49611775 0.93490801 31 0 C31.13496251 2.10241603 31.23197307 4.2072961 31.3125 6.3125 C31.37050781 7.48425781 31.42851562 8.65601563 31.48828125 9.86328125 C31 13 31 13 28.65234375 14.875 C19.56578166 18.72909408 9.98044842 17.43894156 1 14 C0 13 0 13 -0.09765625 10.05859375 C-0.08605469 8.86363281 -0.07445312 7.66867187 -0.0625 6.4375 C-0.05347656 5.23996094 -0.04445312 4.04242188 -0.03515625 2.80859375 C-0.02355469 1.88175781 -0.01195312 0.95492188 0 0 Z " fill="#F3DA7C" transform="translate(172,301)"/>
<path d="M0 0 C1.258125 0.33 2.51625 0.66 3.8125 1 C13.14187562 3.04399466 21.74144752 1.92385506 31 0 C31 4.29 31 8.58 31 13 C24.30326104 18.22672309 17.21104431 17.75593741 9 17 C5.77305594 16.25793008 3.06374599 15.28999831 0 14 C0 9.38 0 4.76 0 0 Z " fill="#74C4A3" transform="translate(241,135)"/>
<path d="M0 0 C2.97 0.495 2.97 0.495 6 1 C7.42405675 1.08291224 8.85087733 1.13043986 10.27734375 1.1328125 C11.03853516 1.13410156 11.79972656 1.13539063 12.58398438 1.13671875 C13.36064453 1.13285156 14.13730469 1.12898438 14.9375 1.125 C15.71029297 1.12886719 16.48308594 1.13273437 17.27929688 1.13671875 C21.95577846 1.12881261 26.38749075 0.77386973 31 0 C31.13496251 2.10241603 31.23197307 4.2072961 31.3125 6.3125 C31.37050781 7.48425781 31.42851562 8.65601563 31.48828125 9.86328125 C31 13 31 13 29.1015625 14.89453125 C24.7121311 16.45902632 20.68801084 16.43564035 16.0625 16.375 C14.74088867 16.39240234 14.74088867 16.39240234 13.39257812 16.41015625 C8.16191705 16.38664766 4.56122725 15.84043476 0 13 C0 8.71 0 4.42 0 0 Z " fill="#F8DD7D" transform="translate(104,272)"/>
<path d="M0 0 C1.00289062 0.32484375 2.00578125 0.6496875 3.0390625 0.984375 C12.06563091 3.55302142 22.07520236 2.50520635 31 0 C31 4.62 31 9.24 31 14 C25.58907008 16.70546496 22.76850677 17.44745759 17.0625 17.3125 C16.38509766 17.31572266 15.70769531 17.31894531 15.00976562 17.32226562 C9.59462883 17.26515488 3.96968548 16.96968548 0 13 C-0.1953125 9.9609375 -0.1953125 9.9609375 -0.125 6.375 C-0.10695312 5.18648437 -0.08890625 3.99796875 -0.0703125 2.7734375 C-0.04710937 1.85820312 -0.02390625 0.94296875 0 0 Z " fill="#F7DD7D" transform="translate(172,242)"/>
<path d="M0 0 C0 4.62 0 9.24 0 14 C-5.54099034 16.78894054 -9.89723809 17.46755606 -16.0625 17.375 C-16.83916016 17.38660156 -17.61582031 17.39820313 -18.41601562 17.41015625 C-23.35548016 17.3850616 -26.67179198 16.61770021 -31 14 C-31 9.71 -31 5.42 -31 1 C-28.03 1.495 -28.03 1.495 -25 2 C-22.34121503 2.11630494 -19.72017711 2.18498564 -17.0625 2.1875 C-16.38509766 2.19974609 -15.70769531 2.21199219 -15.00976562 2.22460938 C-9.74802549 2.23974381 -5.04172579 0 0 0 Z " fill="#F8DD7D" transform="translate(272,271)"/>
<path d="M0 0 C0.1080023 2.10304477 0.18558987 4.20766909 0.25 6.3125 C0.29640625 7.48425781 0.3428125 8.65601563 0.390625 9.86328125 C0 13 0 13 -1.765625 14.85546875 C-6.34961347 17.20356075 -10.72569058 17.21242431 -15.8125 17.25 C-16.49892578 17.270625 -17.18535156 17.29125 -17.89257812 17.3125 C-22.97725127 17.35098381 -26.44643883 16.26189967 -31 14 C-31 9.71 -31 5.42 -31 1 C-29.700625 1.2475 -29.700625 1.2475 -28.375 1.5 C-18.35981055 2.90742988 -9.54877793 0 0 0 Z " fill="#74C5A3" transform="translate(340,164)"/>
<path d="M0 0 C1.2375 0.33 2.475 0.66 3.75 1 C12.97713691 3.02794218 21.89673368 2.25567661 31 0 C31.13496251 2.10241603 31.23197307 4.2072961 31.3125 6.3125 C31.37050781 7.48425781 31.42851562 8.65601563 31.48828125 9.86328125 C31 13 31 13 28.60546875 14.85546875 C27.74566406 15.23316406 26.88585937 15.61085937 26 16 C25.34 16.33 24.68 16.66 24 17 C15.95726332 17.55540811 8.37866179 17.53370155 1 14 C0 13 0 13 -0.09765625 10.05859375 C-0.08605469 8.86363281 -0.07445312 7.66867188 -0.0625 6.4375 C-0.05347656 5.23996094 -0.04445313 4.04242188 -0.03515625 2.80859375 C-0.02355469 1.88175781 -0.01195312 0.95492187 0 0 Z " fill="#74C5A3" transform="translate(377,135)"/>
<path d="M0 0 C0.73089844 0.433125 0.73089844 0.433125 1.4765625 0.875 C-2.19435774 4.97251035 -6.67654233 5.60953389 -11.953125 6.1015625 C-18.00015482 6.30878159 -22.93681465 5.14203536 -28.5234375 2.875 C-28.5234375 1.885 -28.5234375 0.895 -28.5234375 -0.125 C-19.67824484 -5.1793958 -8.90508754 -4.66302766 0 0 Z " fill="#72C1A1" transform="translate(338.5234375,153.125)"/>
<path d="M0 0 C1.051875 0.66 2.10375 1.32 3.1875 2 C-0.40545046 6.02278196 -4.81336916 6.68714103 -9.984375 7.2265625 C-15.99331768 7.46095388 -21.17561951 5.97702698 -26.8125 4 C-26.8125 3.01 -26.8125 2.02 -26.8125 1 C-18.22402139 -2.49361842 -8.64532829 -4.30733555 0 0 Z " fill="#F2DA7C" transform="translate(199.8125,230)"/>
<path d="M0 0 C-0.33 0.99 -0.66 1.98 -1 3 C-9.68696256 7.18835695 -18.31647963 6.88053012 -27.25 3.94921875 C-29 3 -29 3 -30 0 C-21.0173293 -5.2581487 -9.15439586 -4.48378573 0 0 Z " fill="#72C1A0" transform="translate(271,124)"/>
<path d="M0 0 C0.6909375 -0.020625 1.381875 -0.04125 2.09375 -0.0625 C7.19852042 -0.10088173 10.67946746 0.97669847 15.25 3.25 C15.25 4.24 15.25 5.23 15.25 6.25 C10.13316222 8.3082152 5.67486225 8.58487979 0.25 8.5625 C-0.53117187 8.57861328 -1.31234375 8.59472656 -2.1171875 8.61132812 C-7.08819678 8.61551248 -10.39331447 7.89612791 -14.75 5.25 C-10.14777422 0.33037934 -6.51465474 0.04755222 0 0 Z " fill="#72C2A1" transform="translate(391.75,120.75)"/>
<path d="M0 0 C1.09441406 -0.02416992 1.09441406 -0.02416992 2.2109375 -0.04882812 C7.40278355 -0.0534637 10.98138524 0.99069262 15.625 3.3125 C15.625 3.9725 15.625 4.6325 15.625 5.3125 C10.23323579 7.99772645 6.05306726 8.78334908 0.0625 8.6875 C-0.66646484 8.69910156 -1.39542969 8.71070313 -2.14648438 8.72265625 C-6.94934243 8.69671822 -10.15957006 7.82977096 -14.375 5.3125 C-13.375 2.3125 -13.375 2.3125 -11.3359375 1.14453125 C-7.53882016 0.07753126 -3.9112046 -0.01709443 0 0 Z " fill="#F5DB7D" transform="translate(187.375,286.6875)"/>
<path d="M0 0 C0.89396484 -0.01611328 1.78792969 -0.03222656 2.70898438 -0.04882812 C7.57719229 -0.05244224 11.18901193 -0.01109832 15.0625 3.3125 C15.0625 3.9725 15.0625 4.6325 15.0625 5.3125 C7.31390727 9.03182451 -1.23176164 9.7597281 -9.6171875 7.6328125 C-11.8125 6.8125 -11.8125 6.8125 -14.9375 5.3125 C-13.9375 2.3125 -13.9375 2.3125 -12.16186523 1.14379883 C-8.20511103 -0.33493546 -4.17839134 -0.01499782 0 0 Z " fill="#F5DB7D" transform="translate(255.9375,257.6875)"/>
<path d="M0 0 C0.68126953 -0.01611328 1.36253906 -0.03222656 2.06445312 -0.04882812 C6.76293994 -0.05334156 9.91141707 0.93202351 13.9375 3.3125 C13.6075 4.3025 13.2775 5.2925 12.9375 6.3125 C8.36842413 8.39188156 3.9446855 8.64839019 -1 8.625 C-2.01610352 8.64916992 -2.01610352 8.64916992 -3.05273438 8.67382812 C-8.16822633 8.67873272 -11.57149284 7.53165478 -16.0625 5.3125 C-15.7325 4.3225 -15.4025 3.3325 -15.0625 2.3125 C-10.0589701 0.40182894 -5.34651144 -0.02543535 0 0 Z " fill="#73C3A2" transform="translate(325.0625,91.6875)"/>
<path d="M0 0 C0.78117187 -0.01611328 1.56234375 -0.03222656 2.3671875 -0.04882812 C7.33819678 -0.05301248 10.64331447 0.66637209 15 3.3125 C12.89897949 6.46403077 11.96084609 7.07588269 8.390625 7.9609375 C0.28884917 9.15237512 -7.76618568 9.44610818 -15 5.3125 C-15 4.3225 -15 3.3325 -15 2.3125 C-9.88316222 0.2542848 -5.42486225 -0.02237979 0 0 Z " fill="#F5DC7D" transform="translate(120,257.6875)"/>
<path d="M0 0 C0 4.29 0 8.58 0 13 C-6.4 17.06153846 -6.4 17.06153846 -9.4375 16.75 C-9.953125 16.5025 -10.46875 16.255 -11 16 C-10.34 16 -9.68 16 -9 16 C-9 11.71 -9 7.42 -9 3 C-9.66 2.67 -10.32 2.34 -11 2 C-3.375 0 -3.375 0 0 0 Z " fill="#61A78C" transform="translate(272,135)"/>
<path d="M0 0 C0.13496251 2.10241603 0.23197307 4.2072961 0.3125 6.3125 C0.37050781 7.48425781 0.42851562 8.65601563 0.48828125 9.86328125 C0 13 0 13 -2.3125 14.875 C-5.22111095 16.09255807 -7.87473935 16.6365976 -11 17 C-10.34 16.67 -9.68 16.34 -9 16 C-9.33 11.38 -9.66 6.76 -10 2 C-2.25 0 -2.25 0 0 0 Z " fill="#64AC8F" transform="translate(408,135)"/>
<path d="M0 0 C0.13496251 2.10241603 0.23197307 4.2072961 0.3125 6.3125 C0.37050781 7.48425781 0.42851562 8.65601563 0.48828125 9.86328125 C0 13 0 13 -2.26953125 14.91796875 C-5 16 -5 16 -9 16 C-9 11.38 -9 6.76 -9 2 C-4 0 -4 0 0 0 Z " fill="#D5C06E" transform="translate(135,272)"/>
<path d="M0 0 C0 4.62 0 9.24 0 14 C-4.455 15.485 -4.455 15.485 -9 17 C-9 12.05 -9 7.1 -9 2 C-2 0 -2 0 0 0 Z " fill="#CEBC6E" transform="translate(272,271)"/>
<path d="M0 0 C0.1080023 2.10304477 0.18558987 4.20766909 0.25 6.3125 C0.29640625 7.48425781 0.3428125 8.65601563 0.390625 9.86328125 C0 13 0 13 -1.703125 14.85546875 C-4 16 -4 16 -9 17 C-9.33 12.05 -9.66 7.1 -10 2 C-2.25 0 -2.25 0 0 0 Z " fill="#63AA8E" transform="translate(340,164)"/>
<path d="M0 0 C0 4.29 0 8.58 0 13 C-5.625 16 -5.625 16 -9 16 C-9 11.38 -9 6.76 -9 2 C-4 0 -4 0 0 0 Z " fill="#63AA8E" transform="translate(340,106)"/>
<path d="M0 0 C0 4.62 0 9.24 0 14 C-6 17 -6 17 -8 17 C-8.33 12.05 -8.66 7.1 -9 2 C-1.125 0 -1.125 0 0 0 Z " fill="#D3BE6E" transform="translate(203,242)"/>
<path d="M0 0 C0.13496251 2.10241603 0.23197307 4.2072961 0.3125 6.3125 C0.37050781 7.48425781 0.42851562 8.65601563 0.48828125 9.86328125 C0 13 0 13 -2.33203125 14.91796875 C-5 16 -5 16 -8 16 C-8 11.38 -8 6.76 -8 2 C-3 0 -3 0 0 0 Z " fill="#D5C06E" transform="translate(203,301)"/>
</svg>
