<?xml version="1.0" encoding="UTF-8"?>
<svg xmlns="http://www.w3.org/2000/svg" xmlns:xlink="http://www.w3.org/1999/xlink" width="32px" height="32px" viewBox="0 0 32 32" version="1.1">
<g id="surface1">
<path style=" stroke:none;fill-rule:nonzero;fill:rgb(84.705883%,0%,15.294118%);fill-opacity:1;" d="M 0 5.3125 C 10.558594 5.3125 21.121094 5.3125 32 5.3125 C 32 12.367188 32 19.421875 32 26.6875 C 21.441406 26.6875 10.878906 26.6875 0 26.6875 C 0 19.632812 0 12.578125 0 5.3125 Z M 0 5.3125 "/>
<path style=" stroke:none;fill-rule:nonzero;fill:rgb(93.333334%,93.333334%,93.725491%);fill-opacity:1;" d="M 18 18 C 22.621094 18 27.238281 18 32 18 C 32 20.867188 32 23.734375 32 26.6875 C 27.378906 26.6875 22.761719 26.6875 18 26.6875 C 18 23.820312 18 20.953125 18 18 Z M 18 18 "/>
<path style=" stroke:none;fill-rule:nonzero;fill:rgb(93.333334%,93.333334%,93.725491%);fill-opacity:1;" d="M 0 18 C 4.621094 18 9.238281 18 14 18 C 14 20.867188 14 23.734375 14 26.6875 C 9.378906 26.6875 4.761719 26.6875 0 26.6875 C 0 23.820312 0 20.953125 0 18 Z M 0 18 "/>
<path style=" stroke:none;fill-rule:nonzero;fill:rgb(93.333334%,93.333334%,93.333334%);fill-opacity:1;" d="M 18 5.3125 C 22.621094 5.3125 27.238281 5.3125 32 5.3125 C 32 8.179688 32 11.046875 32 14 C 27.378906 14 22.761719 14 18 14 C 18 11.132812 18 8.265625 18 5.3125 Z M 18 5.3125 "/>
<path style=" stroke:none;fill-rule:nonzero;fill:rgb(93.333334%,93.333334%,93.725491%);fill-opacity:1;" d="M 0 5.3125 C 4.621094 5.3125 9.238281 5.3125 14 5.3125 C 14 8.179688 14 11.046875 14 14 C 9.378906 14 4.761719 14 0 14 C 0 11.132812 0 8.265625 0 5.3125 Z M 0 5.3125 "/>
<path style=" stroke:none;fill-rule:nonzero;fill:rgb(0.392157%,32.549021%,70.588237%);fill-opacity:1;" d="M 12.5 20.625 C 12.5 22.625 12.5 24.625 12.5 26.6875 C 8.910156 26.6875 5.324219 26.6875 1.625 26.6875 C 1.796875 26.515625 1.921875 26.429688 2.136719 26.320312 C 2.199219 26.285156 2.265625 26.25 2.332031 26.214844 C 2.402344 26.175781 2.472656 26.140625 2.546875 26.101562 C 2.695312 26.023438 2.84375 25.941406 2.992188 25.863281 C 3.03125 25.84375 3.070312 25.824219 3.109375 25.800781 C 3.457031 25.617188 3.800781 25.421875 4.144531 25.226562 C 4.683594 24.921875 5.222656 24.617188 5.765625 24.320312 C 5.921875 24.234375 6.074219 24.148438 6.230469 24.066406 C 6.265625 24.042969 6.304688 24.023438 6.34375 24 C 6.742188 23.78125 7.140625 23.5625 7.539062 23.339844 C 7.609375 23.300781 7.675781 23.261719 7.75 23.222656 C 7.886719 23.144531 8.027344 23.070312 8.167969 22.992188 C 8.585938 22.757812 9.007812 22.523438 9.425781 22.289062 C 9.753906 22.109375 10.078125 21.929688 10.40625 21.746094 C 10.554688 21.664062 10.707031 21.578125 10.859375 21.496094 C 10.964844 21.4375 11.070312 21.378906 11.175781 21.320312 C 11.367188 21.210938 11.558594 21.105469 11.75 21 C 11.816406 20.964844 11.882812 20.925781 11.949219 20.890625 C 12.042969 20.839844 12.042969 20.839844 12.140625 20.785156 C 12.222656 20.738281 12.222656 20.738281 12.308594 20.691406 C 12.4375 20.625 12.4375 20.625 12.5 20.625 Z M 12.5 20.625 "/>
<path style=" stroke:none;fill-rule:nonzero;fill:rgb(0.392157%,32.549021%,70.588237%);fill-opacity:1;" d="M 19.5 5.3125 C 23.089844 5.3125 26.675781 5.3125 30.375 5.3125 C 30.203125 5.484375 30.078125 5.570312 29.863281 5.679688 C 29.800781 5.714844 29.734375 5.75 29.667969 5.785156 C 29.597656 5.824219 29.527344 5.859375 29.453125 5.898438 C 29.304688 5.976562 29.15625 6.058594 29.007812 6.136719 C 28.96875 6.15625 28.929688 6.175781 28.890625 6.199219 C 28.542969 6.382812 28.199219 6.578125 27.855469 6.773438 C 27.316406 7.078125 26.777344 7.382812 26.234375 7.679688 C 26.078125 7.765625 25.925781 7.851562 25.769531 7.933594 C 25.734375 7.957031 25.695312 7.976562 25.65625 8 C 25.257812 8.21875 24.859375 8.4375 24.460938 8.660156 C 24.390625 8.699219 24.324219 8.738281 24.25 8.777344 C 24.113281 8.855469 23.972656 8.929688 23.832031 9.007812 C 23.625 9.125 23.414062 9.242188 23.203125 9.359375 C 23.097656 9.417969 23.097656 9.417969 22.992188 9.476562 C 22.851562 9.554688 22.710938 9.632812 22.574219 9.710938 C 22.246094 9.890625 21.921875 10.070312 21.597656 10.253906 C 21.445312 10.335938 21.296875 10.421875 21.144531 10.503906 C 21.039062 10.5625 20.933594 10.621094 20.828125 10.679688 C 20.765625 10.71875 20.699219 10.753906 20.632812 10.792969 C 20.550781 10.839844 20.550781 10.839844 20.464844 10.886719 C 20.144531 11.054688 19.820312 11.214844 19.5 11.375 C 19.5 9.375 19.5 7.375 19.5 5.3125 Z M 19.5 5.3125 "/>
<path style=" stroke:none;fill-rule:nonzero;fill:rgb(0.784314%,32.549021%,70.588237%);fill-opacity:1;" d="M 19.5 21.625 C 19.78125 21.71875 19.996094 21.804688 20.25 21.949219 C 20.320312 21.988281 20.390625 22.027344 20.464844 22.070312 C 20.542969 22.113281 20.621094 22.15625 20.699219 22.199219 C 20.78125 22.246094 20.863281 22.289062 20.941406 22.335938 C 21.109375 22.425781 21.277344 22.519531 21.441406 22.613281 C 21.667969 22.738281 21.894531 22.867188 22.121094 22.992188 C 22.46875 23.183594 22.820312 23.378906 23.167969 23.570312 C 23.515625 23.765625 23.867188 23.960938 24.21875 24.15625 C 24.359375 24.234375 24.5 24.3125 24.640625 24.390625 C 24.710938 24.429688 24.78125 24.46875 24.851562 24.507812 C 25.0625 24.625 25.273438 24.742188 25.484375 24.859375 C 25.554688 24.898438 25.625 24.9375 25.695312 24.976562 C 25.835938 25.054688 25.972656 25.132812 26.113281 25.210938 C 26.445312 25.394531 26.773438 25.574219 27.105469 25.757812 C 27.261719 25.84375 27.417969 25.929688 27.574219 26.015625 C 27.683594 26.078125 27.796875 26.136719 27.90625 26.199219 C 27.972656 26.234375 28.039062 26.273438 28.109375 26.308594 C 28.199219 26.359375 28.199219 26.359375 28.289062 26.40625 C 28.4375 26.5 28.4375 26.5 28.625 26.6875 C 25.613281 26.6875 22.601562 26.6875 19.5 26.6875 C 19.5 25.015625 19.5 23.347656 19.5 21.625 Z M 19.5 21.625 "/>
<path style=" stroke:none;fill-rule:nonzero;fill:rgb(0.784314%,32.549021%,70.588237%);fill-opacity:1;" d="M 3.375 5.3125 C 6.386719 5.3125 9.398438 5.3125 12.5 5.3125 C 12.5 6.984375 12.5 8.652344 12.5 10.375 C 12.226562 10.285156 12.023438 10.203125 11.777344 10.066406 C 11.710938 10.027344 11.644531 9.992188 11.578125 9.953125 C 11.507812 9.914062 11.4375 9.875 11.363281 9.832031 C 11.289062 9.789062 11.214844 9.746094 11.136719 9.707031 C 10.980469 9.617188 10.824219 9.53125 10.667969 9.441406 C 10.3125 9.242188 9.953125 9.042969 9.59375 8.84375 C 9.453125 8.765625 9.3125 8.6875 9.171875 8.609375 C 9.066406 8.550781 9.066406 8.550781 8.960938 8.492188 C 8.1875 8.0625 7.414062 7.632812 6.640625 7.203125 C 6.535156 7.144531 6.535156 7.144531 6.429688 7.085938 C 6.289062 7.007812 6.148438 6.929688 6.011719 6.851562 C 5.683594 6.671875 5.351562 6.488281 5.023438 6.304688 C 4.867188 6.21875 4.710938 6.132812 4.558594 6.046875 C 4.449219 5.984375 4.339844 5.925781 4.230469 5.863281 C 4.164062 5.828125 4.097656 5.789062 4.027344 5.753906 C 3.96875 5.71875 3.910156 5.6875 3.851562 5.65625 C 3.53125 5.472656 3.53125 5.472656 3.375 5.375 C 3.375 5.355469 3.375 5.332031 3.375 5.3125 Z M 3.375 5.3125 "/>
<path style=" stroke:none;fill-rule:nonzero;fill:rgb(84.313726%,1.176471%,16.470589%);fill-opacity:1;" d="M 0 5.3125 C 0.0390625 5.335938 0.0820312 5.355469 0.125 5.378906 C 0.433594 5.550781 0.746094 5.71875 1.058594 5.886719 C 1.777344 6.269531 2.488281 6.660156 3.195312 7.058594 C 3.675781 7.332031 4.15625 7.601562 4.640625 7.867188 C 4.796875 7.953125 4.949219 8.039062 5.105469 8.121094 C 5.140625 8.144531 5.179688 8.164062 5.21875 8.1875 C 5.828125 8.519531 6.433594 8.859375 7.042969 9.195312 C 7.390625 9.390625 7.742188 9.585938 8.09375 9.78125 C 8.234375 9.859375 8.375 9.9375 8.515625 10.015625 C 8.585938 10.054688 8.65625 10.09375 8.726562 10.132812 C 8.9375 10.25 9.148438 10.367188 9.359375 10.484375 C 9.429688 10.523438 9.5 10.5625 9.570312 10.601562 C 9.710938 10.679688 9.847656 10.757812 9.988281 10.835938 C 10.320312 11.019531 10.648438 11.199219 10.980469 11.382812 C 11.136719 11.46875 11.292969 11.554688 11.449219 11.640625 C 11.558594 11.703125 11.671875 11.761719 11.78125 11.824219 C 11.847656 11.859375 11.914062 11.898438 11.984375 11.933594 C 12.074219 11.984375 12.074219 11.984375 12.164062 12.03125 C 12.296875 12.117188 12.390625 12.199219 12.5 12.3125 C 8.726562 12.503906 8.726562 12.503906 7.429688 11.507812 C 7.109375 11.273438 6.757812 11.09375 6.40625 10.90625 C 6.265625 10.828125 6.125 10.75 5.984375 10.671875 C 5.914062 10.632812 5.84375 10.59375 5.773438 10.554688 C 5 10.125 4.226562 9.695312 3.453125 9.265625 C 3.382812 9.226562 3.3125 9.1875 3.242188 9.148438 C 3.101562 9.070312 2.960938 8.992188 2.824219 8.914062 C 2.496094 8.734375 2.167969 8.550781 1.839844 8.371094 C 1.6875 8.285156 1.535156 8.199219 1.378906 8.117188 C 1.273438 8.054688 1.164062 7.996094 1.058594 7.9375 C 0.929688 7.867188 0.800781 7.792969 0.671875 7.71875 C 0.507812 7.625 0.507812 7.625 0.34375 7.566406 C 0.183594 7.496094 0.101562 7.453125 0 7.3125 C -0.0625 6.96875 -0.046875 6.636719 -0.03125 6.292969 C -0.0273438 6.199219 -0.0273438 6.101562 -0.0234375 6.007812 C -0.0195312 5.777344 -0.0117188 5.542969 0 5.3125 Z M 0 5.3125 "/>
<path style=" stroke:none;fill-rule:nonzero;fill:rgb(84.313726%,1.176471%,16.078432%);fill-opacity:1;" d="M 19.5 19.6875 C 23.273438 19.496094 23.273438 19.496094 24.570312 20.492188 C 24.890625 20.726562 25.242188 20.90625 25.59375 21.09375 C 25.734375 21.171875 25.875 21.25 26.015625 21.328125 C 26.085938 21.367188 26.15625 21.40625 26.226562 21.445312 C 27 21.875 27.773438 22.304688 28.546875 22.734375 C 28.617188 22.773438 28.6875 22.8125 28.757812 22.851562 C 28.898438 22.929688 29.039062 23.007812 29.175781 23.085938 C 29.503906 23.265625 29.832031 23.449219 30.160156 23.628906 C 30.3125 23.714844 30.464844 23.800781 30.621094 23.882812 C 30.726562 23.945312 30.835938 24.003906 30.941406 24.0625 C 31.070312 24.132812 31.199219 24.207031 31.328125 24.28125 C 31.492188 24.375 31.492188 24.375 31.65625 24.433594 C 31.816406 24.503906 31.898438 24.546875 32 24.6875 C 32.0625 25.03125 32.046875 25.363281 32.03125 25.707031 C 32.027344 25.800781 32.027344 25.898438 32.023438 25.992188 C 32.019531 26.222656 32.011719 26.457031 32 26.6875 C 31.191406 26.261719 30.394531 25.820312 29.597656 25.375 C 29.242188 25.175781 28.886719 24.980469 28.53125 24.78125 C 28.390625 24.703125 28.25 24.625 28.109375 24.546875 C 28.039062 24.507812 27.96875 24.46875 27.898438 24.429688 C 26.5625 23.6875 25.226562 22.945312 23.890625 22.203125 C 23.820312 22.164062 23.75 22.125 23.679688 22.085938 C 23.539062 22.007812 23.398438 21.929688 23.257812 21.851562 C 22.902344 21.65625 22.550781 21.457031 22.195312 21.261719 C 21.292969 20.761719 20.394531 20.257812 19.5 19.75 C 19.5 19.730469 19.5 19.707031 19.5 19.6875 Z M 19.5 19.6875 "/>
<path style=" stroke:none;fill-rule:nonzero;fill:rgb(84.705883%,1.176471%,16.078432%);fill-opacity:1;" d="M 9.789062 19.644531 C 9.867188 19.644531 9.945312 19.644531 10.027344 19.648438 C 10.273438 19.648438 10.519531 19.65625 10.765625 19.660156 C 10.933594 19.664062 11.101562 19.664062 11.269531 19.667969 C 11.679688 19.671875 12.089844 19.679688 12.5 19.6875 C 12.34375 19.851562 12.191406 19.949219 11.988281 20.054688 C 11.925781 20.089844 11.859375 20.125 11.792969 20.160156 C 11.722656 20.199219 11.652344 20.234375 11.578125 20.273438 C 11.429688 20.351562 11.28125 20.433594 11.132812 20.511719 C 11.09375 20.53125 11.054688 20.550781 11.015625 20.574219 C 10.667969 20.757812 10.324219 20.953125 9.980469 21.148438 C 9.441406 21.453125 8.902344 21.757812 8.359375 22.054688 C 8.203125 22.140625 8.050781 22.226562 7.894531 22.308594 C 7.859375 22.332031 7.820312 22.351562 7.78125 22.375 C 7.382812 22.59375 6.984375 22.8125 6.585938 23.035156 C 6.515625 23.074219 6.449219 23.113281 6.375 23.152344 C 6.238281 23.230469 6.097656 23.304688 5.957031 23.382812 C 5.609375 23.578125 5.257812 23.773438 4.90625 23.96875 C 4.765625 24.046875 4.625 24.125 4.484375 24.203125 C 1.050781 26.109375 1.050781 26.109375 0.863281 26.214844 C 0.75 26.277344 0.632812 26.34375 0.519531 26.410156 C 0.441406 26.453125 0.441406 26.453125 0.367188 26.496094 C 0.320312 26.519531 0.277344 26.546875 0.234375 26.570312 C 0.125 26.625 0.125 26.625 0 26.625 C 0 25.984375 0 25.347656 0 24.6875 C 0.921875 24.15625 1.847656 23.640625 2.777344 23.128906 C 3.179688 22.90625 3.578125 22.6875 3.976562 22.464844 C 4.046875 22.425781 4.113281 22.386719 4.1875 22.347656 C 4.324219 22.269531 4.464844 22.195312 4.605469 22.117188 C 4.882812 21.960938 5.164062 21.804688 5.445312 21.648438 C 5.585938 21.570312 5.726562 21.492188 5.863281 21.414062 C 6.191406 21.234375 6.515625 21.054688 6.839844 20.875 C 6.992188 20.789062 7.140625 20.707031 7.292969 20.621094 C 7.398438 20.566406 7.503906 20.507812 7.609375 20.449219 C 7.671875 20.414062 7.738281 20.378906 7.804688 20.339844 C 7.859375 20.308594 7.917969 20.277344 7.972656 20.246094 C 8.183594 20.132812 8.183594 20.132812 8.347656 20.015625 C 8.839844 19.695312 9.207031 19.628906 9.789062 19.644531 Z M 9.789062 19.644531 "/>
<path style=" stroke:none;fill-rule:nonzero;fill:rgb(84.705883%,0.784314%,16.078432%);fill-opacity:1;" d="M 32 5.375 C 32 6.015625 32 6.652344 32 7.3125 C 31.078125 7.84375 30.152344 8.359375 29.222656 8.871094 C 28.820312 9.09375 28.421875 9.3125 28.023438 9.535156 C 27.953125 9.574219 27.886719 9.613281 27.8125 9.652344 C 27.675781 9.730469 27.535156 9.804688 27.394531 9.882812 C 27.117188 10.039062 26.835938 10.195312 26.554688 10.351562 C 26.414062 10.429688 26.273438 10.507812 26.136719 10.585938 C 25.808594 10.765625 25.484375 10.945312 25.160156 11.125 C 25.007812 11.210938 24.859375 11.292969 24.707031 11.378906 C 24.601562 11.433594 24.496094 11.492188 24.390625 11.550781 C 24.328125 11.585938 24.261719 11.621094 24.195312 11.660156 C 24.140625 11.691406 24.082031 11.722656 24.027344 11.753906 C 23.816406 11.867188 23.816406 11.867188 23.652344 11.984375 C 23.160156 12.304688 22.792969 12.371094 22.210938 12.355469 C 22.132812 12.355469 22.054688 12.355469 21.972656 12.351562 C 21.726562 12.351562 21.480469 12.34375 21.234375 12.339844 C 21.066406 12.335938 20.898438 12.335938 20.730469 12.332031 C 20.320312 12.328125 19.910156 12.320312 19.5 12.3125 C 19.585938 12.140625 19.675781 12.125 19.851562 12.042969 C 20.230469 11.859375 20.597656 11.65625 20.964844 11.445312 C 21.519531 11.128906 22.078125 10.816406 22.640625 10.507812 C 22.796875 10.421875 22.949219 10.335938 23.105469 10.253906 C 23.140625 10.230469 23.179688 10.210938 23.21875 10.1875 C 23.617188 9.96875 24.015625 9.75 24.414062 9.527344 C 24.484375 9.488281 24.550781 9.449219 24.625 9.410156 C 24.761719 9.332031 24.902344 9.257812 25.042969 9.179688 C 25.390625 8.984375 25.742188 8.789062 26.09375 8.59375 C 26.234375 8.515625 26.375 8.4375 26.515625 8.359375 C 27.359375 7.890625 27.359375 7.890625 27.570312 7.773438 C 27.710938 7.695312 27.851562 7.617188 27.992188 7.539062 C 28.34375 7.34375 28.699219 7.148438 29.050781 6.949219 C 29.121094 6.910156 29.191406 6.871094 29.265625 6.832031 C 29.40625 6.753906 29.542969 6.675781 29.683594 6.597656 C 30.042969 6.398438 30.402344 6.199219 30.761719 5.996094 C 30.835938 5.957031 30.90625 5.914062 30.980469 5.875 C 31.117188 5.796875 31.257812 5.71875 31.394531 5.636719 C 31.457031 5.605469 31.515625 5.570312 31.582031 5.535156 C 31.632812 5.503906 31.6875 5.472656 31.746094 5.441406 C 31.875 5.375 31.875 5.375 32 5.375 Z M 32 5.375 "/>
<path style=" stroke:none;fill-rule:nonzero;fill:rgb(1.176471%,32.941177%,70.588237%);fill-opacity:1;" d="M 0 8.1875 C 0.523438 8.449219 1.03125 8.707031 1.535156 8.996094 C 2.089844 9.3125 2.644531 9.621094 3.203125 9.929688 C 3.28125 9.972656 3.355469 10.015625 3.433594 10.058594 C 3.550781 10.121094 3.664062 10.183594 3.78125 10.246094 C 4.765625 10.789062 5.75 11.335938 6.722656 11.894531 C 6.773438 11.921875 6.820312 11.953125 6.871094 11.980469 C 6.914062 12.007812 6.957031 12.03125 7.003906 12.058594 C 7.125 12.125 7.25 12.1875 7.375 12.25 C 7.375 12.269531 7.375 12.292969 7.375 12.3125 C 4.941406 12.3125 2.507812 12.3125 0 12.3125 C 0 10.953125 0 9.589844 0 8.1875 Z M 0 8.1875 "/>
<path style=" stroke:none;fill-rule:nonzero;fill:rgb(1.176471%,32.941177%,70.588237%);fill-opacity:1;" d="M 24.625 19.6875 C 27.058594 19.6875 29.492188 19.6875 32 19.6875 C 32 21.046875 32 22.410156 32 23.8125 C 31.476562 23.550781 30.96875 23.292969 30.464844 23.003906 C 29.910156 22.6875 29.355469 22.378906 28.796875 22.070312 C 28.640625 21.984375 28.488281 21.902344 28.335938 21.816406 C 28.296875 21.792969 28.257812 21.773438 28.21875 21.75 C 27.015625 21.089844 25.820312 20.421875 24.625 19.75 C 24.625 19.730469 24.625 19.707031 24.625 19.6875 Z M 24.625 19.6875 "/>
<path style=" stroke:none;fill-rule:nonzero;fill:rgb(1.568628%,33.333334%,70.980394%);fill-opacity:1;" d="M 0 19.6875 C 1.855469 19.6875 3.710938 19.6875 5.625 19.6875 C 5.453125 19.859375 5.328125 19.945312 5.113281 20.054688 C 5.015625 20.109375 5.015625 20.109375 4.917969 20.160156 C 4.8125 20.214844 4.8125 20.214844 4.703125 20.273438 C 4.554688 20.351562 4.40625 20.433594 4.257812 20.511719 C 4.21875 20.53125 4.179688 20.550781 4.140625 20.574219 C 3.792969 20.757812 3.449219 20.953125 3.105469 21.148438 C 2.464844 21.511719 1.820312 21.871094 1.171875 22.226562 C 1.136719 22.246094 1.097656 22.265625 1.058594 22.289062 C 0.953125 22.347656 0.851562 22.402344 0.746094 22.460938 C 0.59375 22.542969 0.445312 22.628906 0.300781 22.714844 C 0.125 22.8125 0.125 22.8125 0 22.8125 C 0 21.78125 0 20.75 0 19.6875 Z M 0 19.6875 "/>
<path style=" stroke:none;fill-rule:nonzero;fill:rgb(1.568628%,32.941177%,70.980394%);fill-opacity:1;" d="M 32 9.1875 C 32 10.21875 32 11.25 32 12.3125 C 30.144531 12.3125 28.289062 12.3125 26.375 12.3125 C 26.601562 12.132812 26.773438 12.007812 27.023438 11.875 C 27.085938 11.839844 27.152344 11.804688 27.21875 11.769531 C 27.289062 11.734375 27.359375 11.699219 27.429688 11.660156 C 27.578125 11.582031 27.726562 11.503906 27.875 11.421875 C 27.910156 11.402344 27.949219 11.382812 27.984375 11.363281 C 28.332031 11.175781 28.675781 10.984375 29.019531 10.789062 C 29.664062 10.421875 30.3125 10.0625 30.964844 9.707031 C 31 9.683594 31.039062 9.664062 31.078125 9.644531 C 31.179688 9.585938 31.28125 9.53125 31.382812 9.476562 C 31.503906 9.410156 31.617188 9.339844 31.734375 9.269531 C 31.875 9.1875 31.875 9.1875 32 9.1875 Z M 32 9.1875 "/>
</g>
</svg>
