<?xml version="1.0" encoding="UTF-8"?>
<svg xmlns="http://www.w3.org/2000/svg" xmlns:xlink="http://www.w3.org/1999/xlink" width="80px" height="80px" viewBox="0 0 96 96" version="1.1">
<g id="surface1">
<path style=" stroke:none;fill-rule:nonzero;fill:rgb(20.784314%,36.862746%,37.254903%);fill-opacity:1;" d="M 64.5 16.5 C 65.234375 17.253906 65.234375 17.253906 65.285156 17.894531 C 65.398438 18.429688 65.398438 18.429688 65.96875 18.71875 C 66.203125 18.828125 66.4375 18.933594 66.675781 19.035156 C 66.804688 19.089844 66.929688 19.148438 67.0625 19.207031 C 67.476562 19.386719 67.890625 19.5625 68.308594 19.734375 C 68.449219 19.792969 68.589844 19.855469 68.734375 19.914062 C 70.726562 20.753906 72.453125 21.25 74.636719 21.191406 C 75.867188 21.183594 76.753906 21.574219 77.730469 22.289062 C 78 22.6875 78 22.6875 78 23.21875 C 78.125 23.816406 78.125 23.816406 78.519531 24.046875 C 79 24.28125 79.488281 24.484375 79.984375 24.683594 C 80.253906 24.796875 80.253906 24.796875 80.53125 24.914062 C 81.113281 25.15625 81.695312 25.390625 82.277344 25.628906 C 82.855469 25.867188 83.4375 26.109375 84.015625 26.351562 C 84.375 26.5 84.738281 26.648438 85.097656 26.796875 C 85.265625 26.863281 85.429688 26.933594 85.597656 27.003906 C 85.742188 27.0625 85.886719 27.121094 86.035156 27.179688 C 86.492188 27.402344 86.820312 27.582031 87.1875 27.9375 C 87.28125 28.476562 87.28125 28.476562 87.277344 29.152344 C 87.277344 29.273438 87.277344 29.398438 87.28125 29.527344 C 87.28125 29.941406 87.277344 30.355469 87.273438 30.773438 C 87.273438 31.070312 87.273438 31.367188 87.273438 31.664062 C 87.273438 32.472656 87.269531 33.28125 87.261719 34.089844 C 87.257812 34.933594 87.257812 35.78125 87.257812 36.625 C 87.253906 38.222656 87.25 39.824219 87.242188 41.421875 C 87.234375 43.242188 87.230469 45.066406 87.226562 46.886719 C 87.21875 50.632812 87.203125 54.378906 87.1875 58.125 C 86.832031 58.304688 86.480469 58.480469 86.125 58.660156 C 85.929688 58.757812 85.730469 58.859375 85.527344 58.960938 C 84.65625 59.386719 83.765625 59.769531 82.871094 60.144531 C 82.679688 60.226562 82.488281 60.308594 82.289062 60.394531 C 81.871094 60.570312 81.457031 60.746094 81.042969 60.921875 C 80.027344 61.347656 79.011719 61.78125 77.996094 62.210938 C 77.640625 62.363281 77.289062 62.511719 76.933594 62.660156 C 74.480469 63.703125 72.035156 64.75 69.585938 65.800781 C 69.148438 65.988281 68.710938 66.175781 68.269531 66.363281 C 67.390625 66.742188 66.511719 67.121094 65.632812 67.496094 C 63.660156 68.34375 61.6875 69.1875 59.71875 70.03125 C 58.628906 70.5 57.539062 70.964844 56.449219 71.433594 C 56.011719 71.621094 55.574219 71.808594 55.136719 71.996094 C 54.917969 72.089844 54.703125 72.179688 54.476562 72.277344 C 52.457031 73.144531 52.457031 73.144531 51.777344 73.433594 C 51.324219 73.628906 50.871094 73.824219 50.417969 74.019531 C 49.304688 74.496094 48.195312 74.96875 47.085938 75.441406 C 45.230469 76.234375 43.375 77.027344 41.539062 77.859375 C 40.808594 78.1875 40.078125 78.511719 39.347656 78.835938 C 39.011719 78.988281 38.675781 79.140625 38.34375 79.296875 C 37.890625 79.507812 37.433594 79.710938 36.972656 79.914062 C 36.78125 80.007812 36.78125 80.007812 36.582031 80.101562 C 35.632812 80.507812 35.015625 80.414062 34.050781 80.070312 C 33.886719 80.007812 33.726562 79.941406 33.5625 79.875 C 33.40625 79.8125 33.246094 79.75 33.085938 79.683594 C 32.574219 79.472656 32.066406 79.253906 31.5625 79.027344 C 31.371094 78.945312 31.179688 78.863281 30.984375 78.777344 C 30.574219 78.597656 30.164062 78.417969 29.753906 78.234375 C 28.644531 77.75 27.535156 77.265625 26.425781 76.78125 C 26.3125 76.730469 26.199219 76.683594 26.082031 76.628906 C 23.054688 75.308594 20.015625 74.019531 16.976562 72.730469 C 15.816406 72.238281 14.65625 71.746094 13.5 71.25 C 13.296875 71.164062 13.09375 71.078125 12.882812 70.988281 C 12.28125 70.730469 11.675781 70.46875 11.074219 70.210938 C 10.796875 70.09375 10.796875 70.09375 10.515625 69.972656 C 10.34375 69.898438 10.175781 69.828125 10 69.75 C 9.851562 69.6875 9.703125 69.625 9.550781 69.558594 C 9.1875 69.375 9.1875 69.375 8.8125 69 C 8.777344 68.503906 8.765625 68.027344 8.769531 67.527344 C 8.769531 67.378906 8.769531 67.226562 8.769531 67.070312 C 8.769531 66.566406 8.773438 66.0625 8.777344 65.558594 C 8.777344 65.210938 8.777344 64.863281 8.777344 64.515625 C 8.777344 63.597656 8.78125 62.679688 8.785156 61.761719 C 8.789062 60.824219 8.792969 59.886719 8.792969 58.953125 C 8.796875 57.113281 8.804688 55.273438 8.8125 53.4375 C 11.609375 52.019531 11.609375 52.019531 13.035156 51.421875 C 13.234375 51.339844 13.234375 51.339844 13.4375 51.25 C 13.710938 51.136719 13.984375 51.019531 14.257812 50.90625 C 14.679688 50.726562 15.101562 50.546875 15.519531 50.367188 C 15.789062 50.253906 16.058594 50.140625 16.328125 50.027344 C 16.453125 49.976562 16.578125 49.921875 16.707031 49.867188 C 17.582031 49.5 17.582031 49.5 18 49.5 C 17.972656 49.25 17.972656 49.25 17.941406 48.996094 C 18 48.375 18 48.375 18.386719 47.871094 C 19.710938 46.828125 21.015625 46.652344 22.648438 46.757812 C 24.441406 46.769531 25.832031 46.121094 27.433594 45.375 C 27.851562 45.1875 28.269531 45 28.6875 44.8125 C 28.949219 44.699219 29.203125 44.582031 29.460938 44.460938 C 30.335938 44.0625 30.335938 44.0625 30.75 44.0625 C 30.730469 43.894531 30.710938 43.730469 30.691406 43.558594 C 30.75 42.9375 30.75 42.9375 31.136719 42.433594 C 32.136719 41.648438 33.070312 41.410156 34.3125 41.25 C 34.3125 41.085938 34.308594 40.925781 34.308594 40.757812 C 34.292969 39.222656 34.28125 37.6875 34.273438 36.15625 C 34.269531 35.367188 34.265625 34.578125 34.257812 33.789062 C 34.246094 33.027344 34.242188 32.265625 34.242188 31.507812 C 34.238281 31.214844 34.238281 30.925781 34.234375 30.636719 C 34.226562 30.226562 34.226562 29.820312 34.226562 29.414062 C 34.226562 29.183594 34.222656 28.953125 34.222656 28.714844 C 34.332031 28.003906 34.5 27.804688 35.0625 27.375 C 35.449219 27.15625 35.449219 27.15625 35.863281 26.980469 C 36.015625 26.914062 36.171875 26.84375 36.332031 26.777344 C 36.5 26.707031 36.667969 26.636719 36.839844 26.5625 C 37.011719 26.488281 37.183594 26.414062 37.359375 26.339844 C 37.722656 26.183594 38.089844 26.03125 38.453125 25.875 C 39.011719 25.640625 39.566406 25.402344 40.125 25.164062 C 40.480469 25.011719 40.832031 24.863281 41.1875 24.710938 C 41.4375 24.605469 41.4375 24.605469 41.691406 24.496094 C 41.847656 24.429688 42.003906 24.363281 42.164062 24.296875 C 42.300781 24.238281 42.433594 24.183594 42.574219 24.125 C 42.9375 24 42.9375 24 43.5 24 C 43.511719 23.804688 43.523438 23.605469 43.535156 23.402344 C 43.71875 22.53125 43.917969 22.28125 44.625 21.75 C 45.59375 21.316406 46.4375 21.148438 47.488281 21.203125 C 49.597656 21.292969 51.351562 20.597656 53.25 19.78125 C 53.449219 19.699219 53.449219 19.699219 53.65625 19.613281 C 55.441406 18.921875 55.441406 18.921875 56.578125 17.472656 C 56.636719 17.265625 56.636719 17.265625 56.695312 17.050781 C 56.8125 16.6875 56.8125 16.6875 57.363281 16.230469 C 59.53125 15.230469 62.441406 15.304688 64.5 16.5 Z M 64.5 16.5 "/>
<path style=" stroke:none;fill-rule:nonzero;fill:rgb(97.647059%,87.058824%,49.019608%);fill-opacity:1;" d="M 85.6875 44.0625 C 85.6875 48.394531 85.6875 52.726562 85.6875 57.1875 C 81.492188 59.003906 77.296875 60.8125 73.089844 62.601562 C 70.101562 63.871094 67.117188 65.144531 64.136719 66.421875 C 63.949219 66.503906 63.761719 66.582031 63.566406 66.667969 C 62.792969 67 62.015625 67.332031 61.242188 67.664062 C 59.792969 68.285156 58.34375 68.90625 56.894531 69.527344 C 56.679688 69.621094 56.464844 69.710938 56.242188 69.808594 C 55.148438 70.277344 54.054688 70.746094 52.960938 71.214844 C 50.890625 72.097656 48.824219 72.984375 46.757812 73.875 C 45.914062 74.238281 45.070312 74.597656 44.226562 74.960938 C 43.65625 75.207031 43.082031 75.453125 42.507812 75.699219 C 41.875 75.972656 41.238281 76.246094 40.601562 76.519531 C 40.417969 76.597656 40.234375 76.679688 40.046875 76.761719 C 38.707031 77.332031 37.363281 77.851562 36 78.375 C 36 74.105469 36 69.835938 36 65.4375 C 37.433594 64.722656 38.84375 64.035156 40.316406 63.417969 C 40.507812 63.335938 40.699219 63.253906 40.898438 63.167969 C 41.316406 62.992188 41.730469 62.816406 42.144531 62.640625 C 43.160156 62.214844 44.175781 61.78125 45.191406 61.351562 C 45.542969 61.203125 45.898438 61.050781 46.253906 60.902344 C 48.496094 59.949219 50.734375 58.992188 52.972656 58.03125 C 56.625 56.460938 60.28125 54.898438 63.9375 53.34375 C 67.460938 51.84375 70.984375 50.339844 74.507812 48.832031 C 74.839844 48.691406 74.839844 48.691406 75.175781 48.546875 C 78.085938 47.300781 80.992188 46.046875 83.886719 44.765625 C 84.101562 44.671875 84.316406 44.578125 84.539062 44.476562 C 84.722656 44.398438 84.90625 44.316406 85.09375 44.230469 C 85.5 44.0625 85.5 44.0625 85.6875 44.0625 Z M 85.6875 44.0625 "/>
<path style=" stroke:none;fill-rule:nonzero;fill:rgb(45.490196%,76.862746%,63.921571%);fill-opacity:1;" d="M 56.4375 20.0625 C 56.441406 20.257812 56.445312 20.449219 56.453125 20.652344 C 56.460938 20.910156 56.472656 21.164062 56.484375 21.421875 C 56.488281 21.550781 56.488281 21.675781 56.492188 21.808594 C 56.523438 22.441406 56.578125 22.8125 56.96875 23.320312 C 58.425781 24.414062 60.125 24.496094 61.875 24.375 C 63.027344 24.175781 64.039062 23.925781 64.875 23.0625 C 65.152344 22.507812 65.128906 21.96875 65.167969 21.351562 C 65.183594 21.109375 65.199219 20.871094 65.214844 20.625 C 65.226562 20.4375 65.238281 20.253906 65.25 20.0625 C 66.8125 20.6875 68.375 21.3125 69.9375 21.9375 C 69.75 22.3125 69.5625 22.6875 69.375 23.0625 C 69.355469 23.449219 69.351562 23.839844 69.351562 24.226562 C 69.351562 24.578125 69.351562 24.578125 69.347656 24.933594 C 69.351562 25.179688 69.351562 25.421875 69.351562 25.675781 C 69.351562 25.917969 69.351562 26.164062 69.347656 26.414062 C 69.347656 26.648438 69.351562 26.882812 69.351562 27.121094 C 69.351562 27.445312 69.351562 27.445312 69.351562 27.773438 C 69.351562 28.324219 69.351562 28.324219 69.5625 28.875 C 69.96875 29.082031 69.96875 29.082031 70.5 29.25 C 70.699219 29.351562 70.902344 29.449219 71.109375 29.554688 C 72.703125 30.148438 74.929688 30.027344 76.527344 29.464844 C 77.0625 29.136719 77.417969 28.804688 77.8125 28.3125 C 77.910156 27.789062 77.960938 27.371094 77.964844 26.847656 C 77.96875 26.71875 77.972656 26.585938 77.980469 26.453125 C 77.988281 26.136719 77.996094 25.816406 78 25.5 C 78.125 25.554688 78.253906 25.605469 78.382812 25.660156 C 78.964844 25.902344 79.550781 26.148438 80.132812 26.390625 C 80.332031 26.472656 80.53125 26.558594 80.734375 26.640625 C 81.945312 27.148438 83.15625 27.644531 84.375 28.125 C 84.375 28.25 84.375 28.371094 84.375 28.5 C 84.269531 28.542969 84.167969 28.589844 84.0625 28.632812 C 78.226562 31.117188 72.390625 33.605469 66.5625 36.105469 C 66.160156 36.277344 65.757812 36.453125 65.351562 36.625 C 64.535156 36.972656 63.71875 37.324219 62.910156 37.695312 C 62.789062 37.75 62.667969 37.804688 62.542969 37.863281 C 62.242188 38 61.941406 38.140625 61.640625 38.28125 C 60.367188 38.667969 59.15625 37.929688 58 37.425781 C 57.800781 37.34375 57.601562 37.257812 57.398438 37.167969 C 56.746094 36.890625 56.09375 36.609375 55.441406 36.328125 C 54.988281 36.132812 54.535156 35.9375 54.078125 35.746094 C 53.144531 35.34375 52.207031 34.941406 51.269531 34.539062 C 49.734375 33.878906 48.199219 33.21875 46.664062 32.5625 C 45.695312 32.144531 44.722656 31.730469 43.753906 31.3125 C 41.546875 30.367188 39.339844 29.429688 37.125 28.5 C 37.652344 27.9375 38.160156 27.695312 38.871094 27.390625 C 38.984375 27.339844 39.101562 27.292969 39.21875 27.242188 C 39.457031 27.136719 39.699219 27.035156 39.941406 26.933594 C 40.3125 26.777344 40.679688 26.617188 41.050781 26.460938 C 41.285156 26.359375 41.519531 26.257812 41.753906 26.160156 C 41.96875 26.070312 42.179688 25.980469 42.402344 25.886719 C 42.9375 25.6875 42.9375 25.6875 43.5 25.6875 C 43.511719 25.914062 43.511719 25.914062 43.519531 26.148438 C 43.535156 26.347656 43.546875 26.546875 43.558594 26.753906 C 43.570312 26.953125 43.582031 27.148438 43.589844 27.355469 C 43.695312 27.996094 43.859375 28.359375 44.25 28.875 C 44.597656 29.132812 44.597656 29.132812 44.988281 29.296875 C 45.175781 29.386719 45.175781 29.386719 45.367188 29.476562 C 47.179688 30.183594 49.386719 29.992188 51.160156 29.28125 C 51.816406 28.921875 52.074219 28.648438 52.3125 27.9375 C 52.359375 27.164062 52.355469 26.390625 52.359375 25.617188 C 52.363281 25.402344 52.367188 25.191406 52.371094 24.972656 C 52.371094 24.765625 52.371094 24.558594 52.375 24.347656 C 52.375 24.160156 52.378906 23.972656 52.378906 23.777344 C 52.300781 23.167969 52.082031 22.820312 51.75 22.3125 C 51.75 22.1875 51.75 22.066406 51.75 21.9375 C 52.460938 21.625 53.171875 21.3125 53.882812 21 C 54.085938 20.910156 54.289062 20.820312 54.496094 20.730469 C 54.691406 20.644531 54.882812 20.558594 55.082031 20.472656 C 55.261719 20.394531 55.441406 20.316406 55.625 20.234375 C 56.0625 20.0625 56.0625 20.0625 56.4375 20.0625 Z M 56.4375 20.0625 "/>
<path style=" stroke:none;fill-rule:nonzero;fill:rgb(97.254902%,86.666667%,49.019608%);fill-opacity:1;" d="M 30.75 45.75 C 30.757812 45.917969 30.769531 46.085938 30.777344 46.257812 C 30.800781 46.585938 30.800781 46.585938 30.820312 46.921875 C 30.839844 47.25 30.839844 47.25 30.859375 47.582031 C 30.933594 48.144531 30.988281 48.476562 31.3125 48.9375 C 31.65625 49.179688 31.65625 49.179688 32.050781 49.347656 C 32.246094 49.4375 32.246094 49.4375 32.441406 49.53125 C 34.050781 50.210938 36.4375 50.160156 38.0625 49.546875 C 38.683594 49.265625 39.039062 48.972656 39.375 48.375 C 39.484375 47.71875 39.484375 47.71875 39.503906 47.015625 C 39.523438 46.660156 39.523438 46.660156 39.542969 46.296875 C 39.546875 46.117188 39.554688 45.9375 39.5625 45.75 C 41.183594 46.242188 42.707031 46.933594 44.25 47.625 C 44.191406 47.738281 44.132812 47.847656 44.074219 47.964844 C 43.550781 49.039062 43.652344 50.097656 43.652344 51.269531 C 43.648438 51.484375 43.648438 51.699219 43.644531 51.921875 C 43.644531 52.125 43.644531 52.332031 43.644531 52.546875 C 43.644531 52.734375 43.644531 52.925781 43.640625 53.117188 C 43.6875 53.640625 43.78125 53.9375 44.0625 54.375 C 44.964844 54.976562 45.972656 55.433594 47.0625 55.5 C 47.199219 55.507812 47.335938 55.519531 47.476562 55.527344 C 48.980469 55.585938 50.730469 55.347656 51.9375 54.375 C 52.355469 53.726562 52.382812 53.121094 52.429688 52.359375 C 52.445312 52.140625 52.457031 51.921875 52.472656 51.695312 C 52.484375 51.445312 52.484375 51.445312 52.5 51.1875 C 54.660156 51.984375 56.765625 52.898438 58.875 53.8125 C 58.363281 54.21875 57.878906 54.507812 57.277344 54.761719 C 57.023438 54.871094 57.023438 54.871094 56.765625 54.980469 C 56.488281 55.097656 56.488281 55.097656 56.207031 55.214844 C 56.011719 55.296875 55.816406 55.378906 55.613281 55.464844 C 54.96875 55.738281 54.320312 56.011719 53.671875 56.285156 C 52.871094 56.625 52.070312 56.960938 51.269531 57.300781 C 50.914062 57.453125 50.554688 57.605469 50.195312 57.757812 C 48.488281 58.480469 46.78125 59.207031 45.078125 59.941406 C 44.839844 60.042969 44.601562 60.144531 44.363281 60.25 C 43.4375 60.644531 42.515625 61.042969 41.59375 61.441406 C 41.269531 61.578125 41.269531 61.578125 40.933594 61.722656 C 40.722656 61.8125 40.515625 61.90625 40.296875 62 C 39.890625 62.171875 39.484375 62.34375 39.074219 62.511719 C 37.921875 62.988281 37.921875 62.988281 36.828125 63.589844 C 36.046875 64.035156 35.492188 64.226562 34.59375 64.015625 C 33.117188 63.542969 31.722656 62.871094 30.316406 62.214844 C 29.855469 62.007812 29.394531 61.800781 28.933594 61.59375 C 28.210938 61.273438 27.492188 60.949219 26.773438 60.625 C 25.066406 59.847656 23.347656 59.09375 21.621094 58.359375 C 21.503906 58.308594 21.382812 58.257812 21.261719 58.207031 C 20.671875 57.957031 20.082031 57.707031 19.496094 57.457031 C 13.820312 55.046875 13.820312 55.046875 11.625 54 C 12.234375 53.496094 12.859375 53.199219 13.582031 52.890625 C 13.699219 52.839844 13.8125 52.792969 13.929688 52.742188 C 14.171875 52.636719 14.414062 52.535156 14.652344 52.433594 C 15.023438 52.277344 15.394531 52.117188 15.761719 51.960938 C 17.574219 51.1875 17.574219 51.1875 18 51.1875 C 18.003906 51.367188 18.007812 51.542969 18.015625 51.730469 C 18.023438 51.964844 18.035156 52.199219 18.046875 52.441406 C 18.054688 52.675781 18.0625 52.90625 18.074219 53.148438 C 18.207031 53.914062 18.371094 54.21875 18.9375 54.75 C 21.109375 55.789062 23.097656 55.667969 25.339844 55.003906 C 25.988281 54.695312 26.230469 54.410156 26.625 53.8125 C 26.734375 53.230469 26.734375 53.230469 26.71875 52.605469 C 26.71875 52.261719 26.71875 52.261719 26.71875 51.910156 C 26.714844 51.671875 26.710938 51.433594 26.707031 51.1875 C 26.707031 50.949219 26.710938 50.710938 26.710938 50.464844 C 26.714844 48.953125 26.714844 48.953125 26.0625 47.625 C 26.773438 47.3125 27.484375 47 28.195312 46.6875 C 28.398438 46.597656 28.601562 46.507812 28.808594 46.417969 C 29.003906 46.332031 29.195312 46.246094 29.394531 46.160156 C 29.574219 46.082031 29.753906 46.003906 29.9375 45.921875 C 30.375 45.75 30.375 45.75 30.75 45.75 Z M 30.75 45.75 "/>
<path style=" stroke:none;fill-rule:nonzero;fill:rgb(97.254902%,87.058824%,49.019608%);fill-opacity:1;" d="M 10.3125 55.125 C 12.210938 55.757812 12.210938 55.757812 12.953125 56.074219 C 13.125 56.148438 13.292969 56.21875 13.464844 56.292969 C 13.734375 56.410156 13.734375 56.410156 14.011719 56.527344 C 14.203125 56.609375 14.398438 56.691406 14.597656 56.777344 C 15.238281 57.050781 15.875 57.324219 16.511719 57.597656 C 16.957031 57.789062 17.40625 57.980469 17.851562 58.171875 C 18.671875 58.519531 19.488281 58.871094 20.308594 59.222656 C 21.648438 59.796875 22.992188 60.371094 24.332031 60.941406 C 25.171875 61.300781 26.011719 61.65625 26.847656 62.015625 C 27.425781 62.261719 28 62.507812 28.574219 62.753906 C 29.214844 63.027344 29.859375 63.300781 30.5 63.574219 C 30.78125 63.695312 30.78125 63.695312 31.070312 63.816406 C 31.246094 63.894531 31.425781 63.96875 31.609375 64.050781 C 31.761719 64.113281 31.914062 64.179688 32.070312 64.246094 C 32.890625 64.621094 33.691406 65.035156 34.5 65.4375 C 34.5 69.707031 34.5 73.976562 34.5 78.375 C 32.601562 77.742188 32.601562 77.742188 31.859375 77.425781 C 31.6875 77.351562 31.519531 77.28125 31.347656 77.207031 C 31.078125 77.089844 31.078125 77.089844 30.800781 76.972656 C 30.609375 76.890625 30.414062 76.808594 30.214844 76.722656 C 29.574219 76.449219 28.9375 76.175781 28.300781 75.902344 C 27.855469 75.710938 27.40625 75.519531 26.960938 75.328125 C 26.140625 74.980469 25.324219 74.628906 24.503906 74.277344 C 23.164062 73.703125 21.820312 73.128906 20.480469 72.558594 C 19.640625 72.199219 18.800781 71.84375 17.964844 71.484375 C 17.386719 71.238281 16.8125 70.992188 16.238281 70.746094 C 15.597656 70.472656 14.953125 70.199219 14.3125 69.925781 C 14.03125 69.804688 14.03125 69.804688 13.742188 69.683594 C 13.566406 69.605469 13.386719 69.53125 13.203125 69.449219 C 13.050781 69.386719 12.898438 69.320312 12.742188 69.253906 C 11.921875 68.878906 11.121094 68.464844 10.3125 68.0625 C 10.3125 63.792969 10.3125 59.523438 10.3125 55.125 Z M 10.3125 55.125 "/>
<path style=" stroke:none;fill-rule:nonzero;fill:rgb(45.490196%,77.254903%,63.921571%);fill-opacity:1;" d="M 85.6875 29.4375 C 85.6875 33.769531 85.6875 38.101562 85.6875 42.5625 C 83.507812 43.492188 83.507812 43.492188 81.28125 44.4375 C 77.703125 45.960938 74.125 47.488281 70.546875 49.019531 C 70.097656 49.214844 69.648438 49.40625 69.199219 49.597656 C 68.566406 49.871094 67.929688 50.140625 67.296875 50.414062 C 67.101562 50.5 66.902344 50.582031 66.703125 50.667969 C 65.835938 51.039062 64.976562 51.410156 64.117188 51.792969 C 63.976562 51.855469 63.835938 51.917969 63.691406 51.984375 C 63.4375 52.097656 63.1875 52.210938 62.933594 52.324219 C 62.417969 52.558594 62.074219 52.6875 61.5 52.6875 C 61.5 48.417969 61.5 44.148438 61.5 39.75 C 63.015625 39.101562 64.53125 38.449219 66.09375 37.78125 C 66.601562 37.5625 67.109375 37.347656 67.632812 37.121094 C 69.945312 36.128906 72.257812 35.140625 74.570312 34.148438 C 75.277344 33.847656 75.988281 33.542969 76.695312 33.238281 C 77.257812 33 77.820312 32.757812 78.382812 32.515625 C 79.015625 32.246094 79.648438 31.976562 80.28125 31.703125 C 80.472656 31.621094 80.667969 31.539062 80.871094 31.453125 C 82.136719 30.90625 83.402344 30.359375 84.660156 29.800781 C 85.480469 29.4375 85.480469 29.4375 85.6875 29.4375 Z M 85.6875 29.4375 "/>
<path style=" stroke:none;fill-rule:nonzero;fill:rgb(45.490196%,77.254903%,63.921571%);fill-opacity:1;" d="M 36 29.625 C 36.703125 29.765625 37.199219 29.898438 37.839844 30.175781 C 38.019531 30.25 38.195312 30.328125 38.375 30.40625 C 38.566406 30.488281 38.757812 30.570312 38.957031 30.65625 C 39.261719 30.789062 39.261719 30.789062 39.574219 30.921875 C 40.128906 31.160156 40.6875 31.402344 41.242188 31.640625 C 41.824219 31.894531 42.410156 32.144531 42.992188 32.398438 C 43.722656 32.710938 44.453125 33.027344 45.183594 33.34375 C 46.921875 34.089844 48.660156 34.835938 50.398438 35.578125 C 50.636719 35.683594 50.878906 35.785156 51.117188 35.886719 C 52.042969 36.285156 52.96875 36.679688 53.894531 37.074219 C 54.53125 37.347656 55.171875 37.621094 55.808594 37.894531 C 55.992188 37.972656 56.179688 38.054688 56.371094 38.136719 C 57.589844 38.65625 58.792969 39.203125 60 39.75 C 60 44.019531 60 48.289062 60 52.6875 C 58.667969 52.421875 57.457031 51.878906 56.207031 51.355469 C 55.898438 51.226562 55.589844 51.101562 55.28125 50.976562 C 54.832031 50.796875 54.386719 50.613281 53.9375 50.425781 C 53.800781 50.371094 53.660156 50.316406 53.519531 50.261719 C 53.128906 50.089844 53.128906 50.089844 52.5 49.6875 C 52.253906 49.019531 52.253906 49.019531 52.125 48.375 C 51.328125 47.539062 50.492188 47.085938 49.316406 47.050781 C 49.042969 47.058594 48.773438 47.070312 48.503906 47.078125 C 45.644531 47.132812 43.203125 45.847656 40.6875 44.625 C 40.484375 44.535156 40.277344 44.445312 40.066406 44.351562 C 39.5625 44.0625 39.5625 44.0625 39.363281 43.417969 C 39.304688 43.199219 39.246094 42.976562 39.1875 42.75 C 38.328125 41.71875 37.410156 41.789062 36 41.4375 C 36 37.539062 36 33.640625 36 29.625 Z M 36 29.625 "/>
<path style=" stroke:none;fill-rule:nonzero;fill:rgb(22.352941%,37.254903%,37.254903%);fill-opacity:1;" d="M 38.234375 52.808594 C 38.765625 53.15625 39.148438 53.515625 39.5625 54 C 39.683594 54.589844 39.683594 54.589844 39.6875 55.25 C 39.6875 55.605469 39.6875 55.605469 39.691406 55.96875 C 39.6875 56.214844 39.683594 56.464844 39.679688 56.71875 C 39.683594 56.964844 39.6875 57.214844 39.691406 57.46875 C 39.691406 57.707031 39.6875 57.945312 39.6875 58.1875 C 39.683594 58.515625 39.683594 58.515625 39.683594 58.847656 C 39.527344 59.609375 39.214844 59.886719 38.625 60.375 C 36.886719 61.359375 34.808594 61.398438 32.90625 60.902344 C 32.007812 60.589844 31.191406 60.128906 30.75 59.25 C 30.6875 58.421875 30.6875 57.59375 30.679688 56.765625 C 30.671875 56.535156 30.664062 56.304688 30.660156 56.066406 C 30.640625 54.164062 30.640625 54.164062 31.171875 53.492188 C 33.074219 51.902344 36.007812 51.832031 38.234375 52.808594 Z M 38.234375 52.808594 "/>
<path style=" stroke:none;fill-rule:nonzero;fill:rgb(20.392157%,36.862746%,37.64706%);fill-opacity:1;" d="M 60.925781 26.71875 C 61.089844 26.71875 61.253906 26.71875 61.421875 26.722656 C 62.644531 26.753906 63.742188 26.910156 64.6875 27.75 C 65.445312 28.820312 65.351562 29.832031 65.355469 31.101562 C 65.363281 31.320312 65.371094 31.535156 65.375 31.761719 C 65.386719 33.550781 65.386719 33.550781 64.726562 34.351562 C 63.621094 35.453125 62.242188 35.496094 60.761719 35.519531 C 59.492188 35.511719 58.261719 35.441406 57.1875 34.6875 C 56.15625 33.609375 56.320312 32.554688 56.332031 31.136719 C 56.328125 30.898438 56.324219 30.664062 56.320312 30.417969 C 56.320312 28.484375 56.320312 28.484375 56.808594 27.808594 C 58.054688 26.855469 59.390625 26.707031 60.925781 26.71875 Z M 60.925781 26.71875 "/>
<path style=" stroke:none;fill-rule:nonzero;fill:rgb(39.215687%,67.450982%,56.078434%);fill-opacity:1;" d="M 85.6875 29.4375 C 85.6875 33.769531 85.6875 38.101562 85.6875 42.5625 C 84.757812 42.933594 83.832031 43.304688 82.875 43.6875 C 82.875 39.355469 82.875 35.023438 82.875 30.5625 C 85.5 29.4375 85.5 29.4375 85.6875 29.4375 Z M 85.6875 29.4375 "/>
<path style=" stroke:none;fill-rule:nonzero;fill:rgb(84.313726%,75.686276%,43.137255%);fill-opacity:1;" d="M 85.6875 44.0625 C 85.6875 48.394531 85.6875 52.726562 85.6875 57.1875 C 83.0625 58.3125 83.0625 58.3125 82.875 58.3125 C 82.875 53.980469 82.875 49.648438 82.875 45.1875 C 85.5 44.0625 85.5 44.0625 85.6875 44.0625 Z M 85.6875 44.0625 "/>
<path style=" stroke:none;fill-rule:nonzero;fill:rgb(45.09804%,76.078433%,63.529414%);fill-opacity:1;" d="M 57.9375 19.875 C 58.113281 19.921875 58.113281 19.921875 58.296875 19.96875 C 59.078125 20.097656 59.84375 20.089844 60.632812 20.085938 C 60.789062 20.085938 60.941406 20.085938 61.101562 20.089844 C 62.003906 20.085938 62.859375 20.027344 63.75 19.875 C 63.75 20.679688 63.75 21.484375 63.75 22.3125 C 62.324219 23.074219 60.761719 23.355469 59.164062 22.941406 C 58.21875 22.59375 58.21875 22.59375 57.9375 22.3125 C 57.925781 21.902344 57.921875 21.492188 57.925781 21.082031 C 57.925781 20.859375 57.929688 20.632812 57.929688 20.402344 C 57.933594 20.226562 57.933594 20.054688 57.9375 19.875 Z M 57.9375 19.875 "/>
<path style=" stroke:none;fill-rule:nonzero;fill:rgb(95.294118%,85.490197%,48.627451%);fill-opacity:1;" d="M 32.25 56.4375 C 32.367188 56.46875 32.484375 56.5 32.601562 56.53125 C 33.421875 56.664062 34.222656 56.652344 35.050781 56.648438 C 35.214844 56.648438 35.382812 56.648438 35.550781 56.652344 C 36.410156 56.648438 37.21875 56.613281 38.0625 56.4375 C 38.085938 56.832031 38.105469 57.226562 38.121094 57.621094 C 38.132812 57.839844 38.144531 58.058594 38.152344 58.285156 C 38.0625 58.875 38.0625 58.875 37.621094 59.226562 C 35.917969 59.949219 34.121094 59.707031 32.4375 59.0625 C 32.25 58.875 32.25 58.875 32.230469 58.324219 C 32.234375 58.097656 32.234375 57.875 32.238281 57.644531 C 32.238281 57.421875 32.242188 57.195312 32.242188 56.964844 C 32.246094 56.789062 32.246094 56.617188 32.25 56.4375 Z M 32.25 56.4375 "/>
<path style=" stroke:none;fill-rule:nonzero;fill:rgb(45.490196%,76.862746%,63.921571%);fill-opacity:1;" d="M 45.1875 25.3125 C 45.421875 25.375 45.660156 25.4375 45.902344 25.5 C 47.652344 25.882812 49.265625 25.671875 51 25.3125 C 51 26.117188 51 26.921875 51 27.75 C 49.746094 28.730469 48.414062 28.640625 46.875 28.5 C 46.269531 28.359375 45.761719 28.179688 45.1875 27.9375 C 45.1875 27.070312 45.1875 26.203125 45.1875 25.3125 Z M 45.1875 25.3125 "/>
<path style=" stroke:none;fill-rule:nonzero;fill:rgb(97.254902%,86.666667%,49.019608%);fill-opacity:1;" d="M 19.5 51 C 20.058594 51.09375 20.058594 51.09375 20.625 51.1875 C 20.890625 51.203125 21.160156 51.210938 21.425781 51.210938 C 21.570312 51.210938 21.710938 51.210938 21.859375 51.214844 C 22.003906 51.210938 22.152344 51.210938 22.300781 51.210938 C 22.445312 51.210938 22.589844 51.210938 22.738281 51.214844 C 23.617188 51.210938 24.449219 51.144531 25.3125 51 C 25.335938 51.394531 25.355469 51.789062 25.371094 52.183594 C 25.382812 52.402344 25.394531 52.621094 25.402344 52.847656 C 25.3125 53.4375 25.3125 53.4375 24.957031 53.792969 C 24.132812 54.085938 23.378906 54.082031 22.511719 54.070312 C 22.265625 54.074219 22.265625 54.074219 22.011719 54.078125 C 21.03125 54.074219 20.355469 53.96875 19.5 53.4375 C 19.5 52.632812 19.5 51.828125 19.5 51 Z M 19.5 51 "/>
<path style=" stroke:none;fill-rule:nonzero;fill:rgb(96.862745%,86.666667%,49.019608%);fill-opacity:1;" d="M 32.25 45.375 C 32.4375 45.4375 32.625 45.496094 32.820312 45.558594 C 34.511719 46.042969 36.390625 45.84375 38.0625 45.375 C 38.0625 46.242188 38.0625 47.109375 38.0625 48 C 37.046875 48.507812 36.519531 48.644531 35.449219 48.621094 C 35.320312 48.621094 35.195312 48.621094 35.0625 48.621094 C 34.050781 48.613281 32.996094 48.558594 32.25 47.8125 C 32.214844 47.242188 32.214844 47.242188 32.226562 46.570312 C 32.230469 46.347656 32.234375 46.125 32.238281 45.894531 C 32.242188 45.722656 32.246094 45.550781 32.25 45.375 Z M 32.25 45.375 "/>
<path style=" stroke:none;fill-rule:nonzero;fill:rgb(97.254902%,86.666667%,49.019608%);fill-opacity:1;" d="M 51 50.8125 C 51 51.679688 51 52.546875 51 53.4375 C 49.960938 53.960938 49.144531 54.085938 47.988281 54.070312 C 47.84375 54.074219 47.695312 54.074219 47.546875 54.078125 C 46.621094 54.070312 46 53.929688 45.1875 53.4375 C 45.1875 52.632812 45.1875 51.828125 45.1875 51 C 45.746094 51.09375 45.746094 51.09375 46.3125 51.1875 C 46.8125 51.210938 47.300781 51.222656 47.800781 51.222656 C 47.929688 51.226562 48.054688 51.226562 48.1875 51.230469 C 49.171875 51.234375 50.054688 50.8125 51 50.8125 Z M 51 50.8125 "/>
<path style=" stroke:none;fill-rule:nonzero;fill:rgb(45.490196%,77.254903%,63.921571%);fill-opacity:1;" d="M 63.75 30.75 C 63.769531 31.144531 63.785156 31.539062 63.796875 31.933594 C 63.804688 32.152344 63.8125 32.371094 63.824219 32.597656 C 63.75 33.1875 63.75 33.1875 63.417969 33.535156 C 62.558594 33.976562 61.738281 33.976562 60.785156 33.984375 C 60.65625 33.988281 60.527344 33.992188 60.394531 33.996094 C 59.441406 34.003906 58.792969 33.800781 57.9375 33.375 C 57.9375 32.570312 57.9375 31.765625 57.9375 30.9375 C 58.179688 30.984375 58.179688 30.984375 58.429688 31.03125 C 60.308594 31.296875 61.960938 30.75 63.75 30.75 Z M 63.75 30.75 "/>
<path style=" stroke:none;fill-rule:nonzero;fill:rgb(45.490196%,77.254903%,63.921571%);fill-opacity:1;" d="M 70.6875 25.3125 C 70.917969 25.375 71.152344 25.4375 71.390625 25.5 C 73.121094 25.878906 74.792969 25.734375 76.5 25.3125 C 76.523438 25.707031 76.542969 26.101562 76.558594 26.496094 C 76.570312 26.714844 76.582031 26.933594 76.589844 27.160156 C 76.5 27.75 76.5 27.75 76.050781 28.097656 C 75.890625 28.167969 75.730469 28.238281 75.5625 28.3125 C 75.4375 28.375 75.316406 28.4375 75.1875 28.5 C 73.679688 28.605469 72.257812 28.601562 70.875 27.9375 C 70.6875 27.75 70.6875 27.75 70.667969 27.199219 C 70.671875 26.972656 70.671875 26.75 70.675781 26.519531 C 70.675781 26.296875 70.679688 26.070312 70.679688 25.839844 C 70.683594 25.664062 70.683594 25.492188 70.6875 25.3125 Z M 70.6875 25.3125 "/>
<path style=" stroke:none;fill-rule:nonzero;fill:rgb(44.705883%,75.686276%,63.137257%);fill-opacity:1;" d="M 63.472656 28.710938 C 63.609375 28.792969 63.609375 28.792969 63.75 28.875 C 63.0625 29.644531 62.222656 29.761719 61.230469 29.855469 C 60.097656 29.894531 59.171875 29.675781 58.125 29.25 C 58.125 29.0625 58.125 28.878906 58.125 28.6875 C 59.785156 27.738281 61.804688 27.835938 63.472656 28.710938 Z M 63.472656 28.710938 "/>
<path style=" stroke:none;fill-rule:nonzero;fill:rgb(94.901961%,85.490197%,48.627451%);fill-opacity:1;" d="M 37.464844 43.125 C 37.660156 43.25 37.859375 43.371094 38.0625 43.5 C 37.390625 44.253906 36.5625 44.378906 35.59375 44.480469 C 34.464844 44.523438 33.496094 44.246094 32.4375 43.875 C 32.4375 43.6875 32.4375 43.503906 32.4375 43.3125 C 34.046875 42.65625 35.84375 42.316406 37.464844 43.125 Z M 37.464844 43.125 "/>
<path style=" stroke:none;fill-rule:nonzero;fill:rgb(44.705883%,75.686276%,62.7451%);fill-opacity:1;" d="M 50.8125 23.25 C 50.75 23.4375 50.6875 23.621094 50.625 23.8125 C 48.996094 24.597656 47.378906 24.539062 45.703125 23.992188 C 45.375 23.8125 45.375 23.8125 45.1875 23.25 C 46.871094 22.265625 49.097656 22.410156 50.8125 23.25 Z M 50.8125 23.25 "/>
<path style=" stroke:none;fill-rule:nonzero;fill:rgb(44.705883%,76.078433%,63.137257%);fill-opacity:1;" d="M 73.453125 22.640625 C 73.582031 22.636719 73.710938 22.632812 73.84375 22.628906 C 74.804688 22.621094 75.457031 22.824219 76.3125 23.25 C 76.3125 23.4375 76.3125 23.621094 76.3125 23.8125 C 75.351562 24.199219 74.515625 24.25 73.5 24.246094 C 73.355469 24.25 73.207031 24.253906 73.054688 24.253906 C 72.125 24.257812 71.503906 24.121094 70.6875 23.625 C 71.550781 22.703125 72.230469 22.648438 73.453125 22.640625 Z M 73.453125 22.640625 "/>
<path style=" stroke:none;fill-rule:nonzero;fill:rgb(96.078432%,85.882354%,49.019608%);fill-opacity:1;" d="M 35.132812 53.753906 C 35.339844 53.75 35.339844 53.75 35.546875 53.746094 C 36.519531 53.742188 37.191406 53.941406 38.0625 54.375 C 38.0625 54.5 38.0625 54.621094 38.0625 54.75 C 37.050781 55.253906 36.269531 55.402344 35.144531 55.382812 C 35.007812 55.386719 34.871094 55.386719 34.730469 55.390625 C 33.828125 55.382812 33.226562 55.222656 32.4375 54.75 C 32.625 54.1875 32.625 54.1875 33.007812 53.96875 C 33.71875 53.769531 34.398438 53.75 35.132812 53.753906 Z M 35.132812 53.753906 "/>
<path style=" stroke:none;fill-rule:nonzero;fill:rgb(96.078432%,85.882354%,49.019608%);fill-opacity:1;" d="M 47.988281 48.316406 C 48.15625 48.3125 48.324219 48.308594 48.496094 48.308594 C 49.410156 48.304688 50.085938 48.3125 50.8125 48.9375 C 50.8125 49.0625 50.8125 49.183594 50.8125 49.3125 C 49.359375 50.011719 47.757812 50.144531 46.183594 49.746094 C 45.773438 49.59375 45.773438 49.59375 45.1875 49.3125 C 45.375 48.75 45.375 48.75 45.707031 48.53125 C 46.449219 48.253906 47.203125 48.3125 47.988281 48.316406 Z M 47.988281 48.316406 "/>
<path style=" stroke:none;fill-rule:nonzero;fill:rgb(45.09804%,76.47059%,63.529414%);fill-opacity:1;" d="M 60.949219 17.191406 C 61.078125 17.1875 61.203125 17.183594 61.335938 17.183594 C 62.21875 17.179688 62.808594 17.367188 63.5625 17.8125 C 63.5 18 63.4375 18.183594 63.375 18.375 C 62.519531 18.765625 61.6875 18.8125 60.761719 18.808594 C 60.570312 18.8125 60.570312 18.8125 60.375 18.816406 C 59.417969 18.820312 58.78125 18.605469 57.9375 18.1875 C 58 18 58.0625 17.816406 58.125 17.625 C 59.0625 17.265625 59.945312 17.1875 60.949219 17.191406 Z M 60.949219 17.191406 "/>
<path style=" stroke:none;fill-rule:nonzero;fill:rgb(96.078432%,86.274511%,49.019608%);fill-opacity:1;" d="M 22.5 48.316406 C 22.644531 48.3125 22.792969 48.308594 22.945312 48.308594 C 23.875 48.304688 24.496094 48.441406 25.3125 48.9375 C 24.917969 49.527344 24.742188 49.644531 24.074219 49.808594 C 22.554688 50.03125 21.042969 50.085938 19.6875 49.3125 C 19.6875 49.125 19.6875 48.941406 19.6875 48.75 C 20.648438 48.363281 21.484375 48.3125 22.5 48.316406 Z M 22.5 48.316406 "/>
<path style=" stroke:none;fill-rule:nonzero;fill:rgb(38.039216%,65.490198%,54.901963%);fill-opacity:1;" d="M 51 25.3125 C 51 26.117188 51 26.921875 51 27.75 C 49.800781 28.511719 49.800781 28.511719 49.230469 28.453125 C 49.132812 28.40625 49.039062 28.359375 48.9375 28.3125 C 49.0625 28.3125 49.183594 28.3125 49.3125 28.3125 C 49.3125 27.507812 49.3125 26.703125 49.3125 25.875 C 49.1875 25.8125 49.066406 25.75 48.9375 25.6875 C 50.367188 25.3125 50.367188 25.3125 51 25.3125 Z M 51 25.3125 "/>
<path style=" stroke:none;fill-rule:nonzero;fill:rgb(39.215687%,67.450982%,56.078434%);fill-opacity:1;" d="M 76.5 25.3125 C 76.523438 25.707031 76.542969 26.101562 76.558594 26.496094 C 76.570312 26.714844 76.582031 26.933594 76.589844 27.160156 C 76.5 27.75 76.5 27.75 76.066406 28.101562 C 75.519531 28.328125 75.023438 28.433594 74.4375 28.5 C 74.5625 28.4375 74.683594 28.375 74.8125 28.3125 C 74.75 27.445312 74.6875 26.578125 74.625 25.6875 C 76.078125 25.3125 76.078125 25.3125 76.5 25.3125 Z M 76.5 25.3125 "/>
<path style=" stroke:none;fill-rule:nonzero;fill:rgb(83.529413%,75.294119%,43.137255%);fill-opacity:1;" d="M 25.3125 51 C 25.335938 51.394531 25.355469 51.789062 25.371094 52.183594 C 25.382812 52.402344 25.394531 52.621094 25.402344 52.847656 C 25.3125 53.4375 25.3125 53.4375 24.886719 53.796875 C 24.375 54 24.375 54 23.625 54 C 23.625 53.132812 23.625 52.265625 23.625 51.375 C 24.5625 51 24.5625 51 25.3125 51 Z M 25.3125 51 "/>
<path style=" stroke:none;fill-rule:nonzero;fill:rgb(80.784315%,73.725492%,43.137255%);fill-opacity:1;" d="M 51 50.8125 C 51 51.679688 51 52.546875 51 53.4375 C 50.164062 53.714844 50.164062 53.714844 49.3125 54 C 49.3125 53.070312 49.3125 52.144531 49.3125 51.1875 C 50.625 50.8125 50.625 50.8125 51 50.8125 Z M 51 50.8125 "/>
<path style=" stroke:none;fill-rule:nonzero;fill:rgb(38.82353%,66.666669%,55.686277%);fill-opacity:1;" d="M 63.75 30.75 C 63.769531 31.144531 63.785156 31.539062 63.796875 31.933594 C 63.804688 32.152344 63.8125 32.371094 63.824219 32.597656 C 63.75 33.1875 63.75 33.1875 63.429688 33.535156 C 63 33.75 63 33.75 62.0625 33.9375 C 62 33.007812 61.9375 32.082031 61.875 31.125 C 63.328125 30.75 63.328125 30.75 63.75 30.75 Z M 63.75 30.75 "/>
<path style=" stroke:none;fill-rule:nonzero;fill:rgb(38.82353%,66.666669%,55.686277%);fill-opacity:1;" d="M 63.75 19.875 C 63.75 20.679688 63.75 21.484375 63.75 22.3125 C 62.695312 22.875 62.695312 22.875 62.0625 22.875 C 62.0625 22.007812 62.0625 21.140625 62.0625 20.25 C 63 19.875 63 19.875 63.75 19.875 Z M 63.75 19.875 "/>
<path style=" stroke:none;fill-rule:nonzero;fill:rgb(82.745099%,74.509805%,43.137255%);fill-opacity:1;" d="M 38.0625 45.375 C 38.0625 46.242188 38.0625 47.109375 38.0625 48 C 36.9375 48.5625 36.9375 48.5625 36.5625 48.5625 C 36.5 47.632812 36.4375 46.707031 36.375 45.75 C 37.851562 45.375 37.851562 45.375 38.0625 45.375 Z M 38.0625 45.375 "/>
<path style=" stroke:none;fill-rule:nonzero;fill:rgb(83.529413%,75.294119%,43.137255%);fill-opacity:1;" d="M 38.0625 56.4375 C 38.085938 56.832031 38.105469 57.226562 38.121094 57.621094 C 38.132812 57.839844 38.144531 58.058594 38.152344 58.285156 C 38.0625 58.875 38.0625 58.875 37.625 59.234375 C 37.125 59.4375 37.125 59.4375 36.5625 59.4375 C 36.5625 58.570312 36.5625 57.703125 36.5625 56.8125 C 37.5 56.4375 37.5 56.4375 38.0625 56.4375 Z M 38.0625 56.4375 "/>
</g>
</svg>
